<mxfile host="app.diagrams.net" modified="2023-11-22T18:10:42.078Z" agent="Mozilla/5.0 (Windows NT 10.0; Win64; x64) AppleWebKit/537.36 (KHTML, like Gecko) Chrome/119.0.0.0 Safari/537.36" etag="iiX0Ybub682nMoK7qNcL" version="22.1.3" type="device" pages="2">
  <diagram id="N1oMMZQOAmySJYtqY-QZ" name="Obecný &quot;Diagram&quot;">
    <mxGraphModel dx="1050" dy="625" grid="1" gridSize="10" guides="1" tooltips="1" connect="1" arrows="1" fold="1" page="1" pageScale="1" pageWidth="827" pageHeight="1169" math="0" shadow="0">
      <root>
        <mxCell id="0" />
        <mxCell id="1" parent="0" />
        <mxCell id="Qx9C8x8sR_E061tDTgvx-3" value="" style="edgeStyle=orthogonalEdgeStyle;rounded=0;orthogonalLoop=1;jettySize=auto;html=1;" parent="1" source="Qx9C8x8sR_E061tDTgvx-1" target="Qx9C8x8sR_E061tDTgvx-2" edge="1">
          <mxGeometry relative="1" as="geometry" />
        </mxCell>
        <mxCell id="Qx9C8x8sR_E061tDTgvx-1" value="spuštění hry" style="ellipse;whiteSpace=wrap;html=1;" parent="1" vertex="1">
          <mxGeometry x="200" y="20" width="120" height="60" as="geometry" />
        </mxCell>
        <mxCell id="Qx9C8x8sR_E061tDTgvx-8" value="Nová hra" style="edgeStyle=orthogonalEdgeStyle;rounded=0;orthogonalLoop=1;jettySize=auto;html=1;exitX=0;exitY=0.5;exitDx=0;exitDy=0;" parent="1" source="Qx9C8x8sR_E061tDTgvx-2" target="Qx9C8x8sR_E061tDTgvx-4" edge="1">
          <mxGeometry x="0.2727" relative="1" as="geometry">
            <mxPoint as="offset" />
          </mxGeometry>
        </mxCell>
        <mxCell id="Qx9C8x8sR_E061tDTgvx-9" value="Načíst hru" style="edgeStyle=orthogonalEdgeStyle;rounded=0;orthogonalLoop=1;jettySize=auto;html=1;exitX=1;exitY=0.5;exitDx=0;exitDy=0;entryX=0.5;entryY=0;entryDx=0;entryDy=0;" parent="1" source="Qx9C8x8sR_E061tDTgvx-2" target="Qx9C8x8sR_E061tDTgvx-5" edge="1">
          <mxGeometry x="0.2727" relative="1" as="geometry">
            <mxPoint as="offset" />
          </mxGeometry>
        </mxCell>
        <mxCell id="Qx9C8x8sR_E061tDTgvx-2" value="main menu" style="whiteSpace=wrap;html=1;" parent="1" vertex="1">
          <mxGeometry x="200" y="120" width="120" height="60" as="geometry" />
        </mxCell>
        <mxCell id="Qx9C8x8sR_E061tDTgvx-13" style="edgeStyle=orthogonalEdgeStyle;rounded=0;orthogonalLoop=1;jettySize=auto;html=1;exitX=0.5;exitY=1;exitDx=0;exitDy=0;" parent="1" source="Qx9C8x8sR_E061tDTgvx-4" edge="1">
          <mxGeometry relative="1" as="geometry">
            <mxPoint x="260" y="360" as="targetPoint" />
          </mxGeometry>
        </mxCell>
        <mxCell id="Qx9C8x8sR_E061tDTgvx-4" value="Vytvoří novou hru" style="rounded=0;whiteSpace=wrap;html=1;" parent="1" vertex="1">
          <mxGeometry x="120" y="240" width="120" height="59" as="geometry" />
        </mxCell>
        <mxCell id="Qx9C8x8sR_E061tDTgvx-11" style="edgeStyle=orthogonalEdgeStyle;rounded=0;orthogonalLoop=1;jettySize=auto;html=1;exitX=0.5;exitY=1;exitDx=0;exitDy=0;" parent="1" source="Qx9C8x8sR_E061tDTgvx-5" target="Qx9C8x8sR_E061tDTgvx-10" edge="1">
          <mxGeometry relative="1" as="geometry" />
        </mxCell>
        <mxCell id="Qx9C8x8sR_E061tDTgvx-5" value="Zobrazíme uložene savy" style="rounded=0;whiteSpace=wrap;html=1;" parent="1" vertex="1">
          <mxGeometry x="280" y="240" width="120" height="59" as="geometry" />
        </mxCell>
        <mxCell id="Qx9C8x8sR_E061tDTgvx-15" style="edgeStyle=orthogonalEdgeStyle;rounded=0;orthogonalLoop=1;jettySize=auto;html=1;exitX=0.5;exitY=1;exitDx=0;exitDy=0;entryX=0.5;entryY=0;entryDx=0;entryDy=0;" parent="1" source="Qx9C8x8sR_E061tDTgvx-10" target="Qx9C8x8sR_E061tDTgvx-14" edge="1">
          <mxGeometry relative="1" as="geometry" />
        </mxCell>
        <mxCell id="Qx9C8x8sR_E061tDTgvx-10" value="Zobrazí/Vykreslí Hru (Mapa, objekty, atp)" style="rounded=0;whiteSpace=wrap;html=1;" parent="1" vertex="1">
          <mxGeometry x="200" y="360" width="120" height="59" as="geometry" />
        </mxCell>
        <mxCell id="Qx9C8x8sR_E061tDTgvx-25" style="edgeStyle=orthogonalEdgeStyle;rounded=0;orthogonalLoop=1;jettySize=auto;html=1;exitX=0.5;exitY=1;exitDx=0;exitDy=0;entryX=0.5;entryY=0;entryDx=0;entryDy=0;" parent="1" source="Qx9C8x8sR_E061tDTgvx-14" target="Qx9C8x8sR_E061tDTgvx-28" edge="1">
          <mxGeometry relative="1" as="geometry">
            <mxPoint x="260" y="595" as="targetPoint" />
          </mxGeometry>
        </mxCell>
        <mxCell id="Qx9C8x8sR_E061tDTgvx-39" style="edgeStyle=orthogonalEdgeStyle;rounded=0;orthogonalLoop=1;jettySize=auto;html=1;exitX=1;exitY=0.5;exitDx=0;exitDy=0;entryX=0;entryY=0.5;entryDx=0;entryDy=0;dashed=1;" parent="1" source="Qx9C8x8sR_E061tDTgvx-14" target="Qx9C8x8sR_E061tDTgvx-38" edge="1">
          <mxGeometry relative="1" as="geometry" />
        </mxCell>
        <mxCell id="Qx9C8x8sR_E061tDTgvx-14" value="Hraní hry" style="shape=process;whiteSpace=wrap;html=1;backgroundOutline=1;" parent="1" vertex="1">
          <mxGeometry x="200" y="460" width="120" height="60" as="geometry" />
        </mxCell>
        <mxCell id="Qx9C8x8sR_E061tDTgvx-32" style="edgeStyle=orthogonalEdgeStyle;rounded=0;orthogonalLoop=1;jettySize=auto;html=1;exitX=0;exitY=0.5;exitDx=0;exitDy=0;entryX=0.375;entryY=0;entryDx=0;entryDy=0;" parent="1" source="Qx9C8x8sR_E061tDTgvx-16" target="Qx9C8x8sR_E061tDTgvx-28" edge="1">
          <mxGeometry relative="1" as="geometry" />
        </mxCell>
        <mxCell id="Qx9C8x8sR_E061tDTgvx-16" value="Uloží hru" style="whiteSpace=wrap;html=1;" parent="1" vertex="1">
          <mxGeometry x="40" y="700" width="120" height="60" as="geometry" />
        </mxCell>
        <mxCell id="Qx9C8x8sR_E061tDTgvx-36" style="edgeStyle=orthogonalEdgeStyle;rounded=0;orthogonalLoop=1;jettySize=auto;html=1;exitX=1;exitY=0.5;exitDx=0;exitDy=0;entryX=0.75;entryY=0;entryDx=0;entryDy=0;" parent="1" source="Qx9C8x8sR_E061tDTgvx-20" target="Qx9C8x8sR_E061tDTgvx-2" edge="1">
          <mxGeometry relative="1" as="geometry" />
        </mxCell>
        <mxCell id="Qx9C8x8sR_E061tDTgvx-20" value="Uloží hru a vrátí se do menu" style="rounded=0;whiteSpace=wrap;html=1;" parent="1" vertex="1">
          <mxGeometry x="360" y="700" width="120" height="60" as="geometry" />
        </mxCell>
        <mxCell id="Qx9C8x8sR_E061tDTgvx-29" style="edgeStyle=orthogonalEdgeStyle;rounded=0;orthogonalLoop=1;jettySize=auto;html=1;exitX=0;exitY=0.5;exitDx=0;exitDy=0;entryX=0.5;entryY=0;entryDx=0;entryDy=0;" parent="1" source="Qx9C8x8sR_E061tDTgvx-28" target="Qx9C8x8sR_E061tDTgvx-16" edge="1">
          <mxGeometry relative="1" as="geometry" />
        </mxCell>
        <mxCell id="Qx9C8x8sR_E061tDTgvx-37" value="Uložit" style="edgeLabel;html=1;align=center;verticalAlign=middle;resizable=0;points=[];" parent="Qx9C8x8sR_E061tDTgvx-29" vertex="1" connectable="0">
          <mxGeometry x="0.4575" y="3" relative="1" as="geometry">
            <mxPoint x="-3" y="19" as="offset" />
          </mxGeometry>
        </mxCell>
        <mxCell id="Qx9C8x8sR_E061tDTgvx-30" value="Uložit a vrátit se do menu" style="edgeStyle=orthogonalEdgeStyle;rounded=0;orthogonalLoop=1;jettySize=auto;html=1;exitX=1;exitY=0.5;exitDx=0;exitDy=0;" parent="1" source="Qx9C8x8sR_E061tDTgvx-28" target="Qx9C8x8sR_E061tDTgvx-20" edge="1">
          <mxGeometry x="0.6667" relative="1" as="geometry">
            <mxPoint as="offset" />
          </mxGeometry>
        </mxCell>
        <mxCell id="Qx9C8x8sR_E061tDTgvx-33" value="Uložit a ukončit hru" style="edgeStyle=orthogonalEdgeStyle;rounded=0;orthogonalLoop=1;jettySize=auto;html=1;exitX=0.5;exitY=1;exitDx=0;exitDy=0;entryX=0.5;entryY=0;entryDx=0;entryDy=0;" parent="1" source="Qx9C8x8sR_E061tDTgvx-28" target="Qx9C8x8sR_E061tDTgvx-31" edge="1">
          <mxGeometry relative="1" as="geometry" />
        </mxCell>
        <mxCell id="Qx9C8x8sR_E061tDTgvx-28" value="Menu" style="shape=hexagon;perimeter=hexagonPerimeter2;whiteSpace=wrap;html=1;fixedSize=1;" parent="1" vertex="1">
          <mxGeometry x="200" y="600" width="120" height="40" as="geometry" />
        </mxCell>
        <mxCell id="Qx9C8x8sR_E061tDTgvx-35" style="edgeStyle=orthogonalEdgeStyle;rounded=0;orthogonalLoop=1;jettySize=auto;html=1;exitX=0.5;exitY=1;exitDx=0;exitDy=0;entryX=0.5;entryY=0;entryDx=0;entryDy=0;" parent="1" source="Qx9C8x8sR_E061tDTgvx-31" target="Qx9C8x8sR_E061tDTgvx-34" edge="1">
          <mxGeometry relative="1" as="geometry" />
        </mxCell>
        <mxCell id="Qx9C8x8sR_E061tDTgvx-31" value="Uloží a ukončí hru" style="whiteSpace=wrap;html=1;" parent="1" vertex="1">
          <mxGeometry x="200" y="700" width="120" height="60" as="geometry" />
        </mxCell>
        <mxCell id="Qx9C8x8sR_E061tDTgvx-34" value="Konec" style="ellipse;whiteSpace=wrap;html=1;" parent="1" vertex="1">
          <mxGeometry x="200" y="800" width="120" height="80" as="geometry" />
        </mxCell>
        <mxCell id="Qx9C8x8sR_E061tDTgvx-38" value="Hraní hry" style="swimlane;whiteSpace=wrap;html=1;" parent="1" vertex="1">
          <mxGeometry x="640" y="40" width="240" height="560" as="geometry" />
        </mxCell>
        <mxCell id="Qx9C8x8sR_E061tDTgvx-47" style="edgeStyle=orthogonalEdgeStyle;rounded=0;orthogonalLoop=1;jettySize=auto;html=1;exitX=0.5;exitY=1;exitDx=0;exitDy=0;entryX=0.5;entryY=0;entryDx=0;entryDy=0;" parent="Qx9C8x8sR_E061tDTgvx-38" source="Qx9C8x8sR_E061tDTgvx-40" target="Qx9C8x8sR_E061tDTgvx-45" edge="1">
          <mxGeometry relative="1" as="geometry" />
        </mxCell>
        <mxCell id="Qx9C8x8sR_E061tDTgvx-40" value="Začátek" style="ellipse;whiteSpace=wrap;html=1;" parent="Qx9C8x8sR_E061tDTgvx-38" vertex="1">
          <mxGeometry x="40" y="40" width="120" height="40" as="geometry" />
        </mxCell>
        <mxCell id="Qx9C8x8sR_E061tDTgvx-42" style="edgeStyle=orthogonalEdgeStyle;rounded=0;orthogonalLoop=1;jettySize=auto;html=1;exitX=1;exitY=0.5;exitDx=0;exitDy=0;entryX=1;entryY=0.5;entryDx=0;entryDy=0;" parent="Qx9C8x8sR_E061tDTgvx-38" source="Qx9C8x8sR_E061tDTgvx-41" target="Qx9C8x8sR_E061tDTgvx-40" edge="1">
          <mxGeometry relative="1" as="geometry">
            <Array as="points">
              <mxPoint x="220" y="500" />
              <mxPoint x="220" y="60" />
            </Array>
          </mxGeometry>
        </mxCell>
        <mxCell id="Qx9C8x8sR_E061tDTgvx-41" value="Konec" style="ellipse;whiteSpace=wrap;html=1;" parent="Qx9C8x8sR_E061tDTgvx-38" vertex="1">
          <mxGeometry x="40" y="480" width="120" height="40" as="geometry" />
        </mxCell>
        <mxCell id="Qx9C8x8sR_E061tDTgvx-44" style="edgeStyle=orthogonalEdgeStyle;rounded=0;orthogonalLoop=1;jettySize=auto;html=1;exitX=0.5;exitY=1;exitDx=0;exitDy=0;entryX=0.5;entryY=0;entryDx=0;entryDy=0;" parent="Qx9C8x8sR_E061tDTgvx-38" source="Qx9C8x8sR_E061tDTgvx-43" target="Qx9C8x8sR_E061tDTgvx-41" edge="1">
          <mxGeometry relative="1" as="geometry" />
        </mxCell>
        <mxCell id="Qx9C8x8sR_E061tDTgvx-43" value="Vykreslení hry&lt;br&gt;draw()" style="shape=process;whiteSpace=wrap;html=1;backgroundOutline=1;" parent="Qx9C8x8sR_E061tDTgvx-38" vertex="1">
          <mxGeometry x="40" y="380" width="120" height="60" as="geometry" />
        </mxCell>
        <mxCell id="Qx9C8x8sR_E061tDTgvx-48" style="edgeStyle=orthogonalEdgeStyle;rounded=0;orthogonalLoop=1;jettySize=auto;html=1;exitX=0.5;exitY=1;exitDx=0;exitDy=0;entryX=0.5;entryY=0;entryDx=0;entryDy=0;" parent="Qx9C8x8sR_E061tDTgvx-38" source="Qx9C8x8sR_E061tDTgvx-45" target="Qx9C8x8sR_E061tDTgvx-46" edge="1">
          <mxGeometry relative="1" as="geometry" />
        </mxCell>
        <mxCell id="Qx9C8x8sR_E061tDTgvx-45" value="Zpracování Pohybu" style="rounded=0;whiteSpace=wrap;html=1;" parent="Qx9C8x8sR_E061tDTgvx-38" vertex="1">
          <mxGeometry x="40" y="140" width="120" height="60" as="geometry" />
        </mxCell>
        <mxCell id="Qx9C8x8sR_E061tDTgvx-49" style="edgeStyle=orthogonalEdgeStyle;rounded=0;orthogonalLoop=1;jettySize=auto;html=1;exitX=0.5;exitY=1;exitDx=0;exitDy=0;entryX=0.5;entryY=0;entryDx=0;entryDy=0;" parent="Qx9C8x8sR_E061tDTgvx-38" source="Qx9C8x8sR_E061tDTgvx-46" target="Qx9C8x8sR_E061tDTgvx-43" edge="1">
          <mxGeometry relative="1" as="geometry" />
        </mxCell>
        <mxCell id="Qx9C8x8sR_E061tDTgvx-46" value="Vykonání určité akce na základě pozice" style="shape=process;whiteSpace=wrap;html=1;backgroundOutline=1;" parent="Qx9C8x8sR_E061tDTgvx-38" vertex="1">
          <mxGeometry x="40" y="260" width="120" height="60" as="geometry" />
        </mxCell>
      </root>
    </mxGraphModel>
  </diagram>
  <diagram id="9jlX-87bRNyqnyLkYuuC" name="UML Diagram">
    <mxGraphModel dx="1229" dy="1055" grid="1" gridSize="10" guides="1" tooltips="1" connect="1" arrows="1" fold="1" page="0" pageScale="1" pageWidth="827" pageHeight="1169" math="0" shadow="0">
      <root>
        <mxCell id="0" />
        <mxCell id="1" parent="0" />
        <mxCell id="SSqiaNLJgeLojGb0BakC-23" style="edgeStyle=orthogonalEdgeStyle;rounded=0;orthogonalLoop=1;jettySize=auto;html=1;exitX=0.5;exitY=0;exitDx=0;exitDy=0;entryX=0;entryY=0.5;entryDx=0;entryDy=0;strokeWidth=1;startArrow=none;startFill=0;endArrow=block;endFill=0;" parent="1" source="1YELGyrMm5p_oQ3cGRLv-13" target="SSqiaNLJgeLojGb0BakC-6" edge="1">
          <mxGeometry relative="1" as="geometry">
            <Array as="points">
              <mxPoint x="140" y="188" />
              <mxPoint x="-110" y="188" />
              <mxPoint x="-110" y="-197" />
            </Array>
          </mxGeometry>
        </mxCell>
        <mxCell id="1YELGyrMm5p_oQ3cGRLv-13" value="Game" style="swimlane;fontStyle=1;align=center;verticalAlign=top;childLayout=stackLayout;horizontal=1;startSize=26;horizontalStack=0;resizeParent=1;resizeParentMax=0;resizeLast=0;collapsible=1;marginBottom=0;" parent="1" vertex="1">
          <mxGeometry x="40" y="560" width="200" height="190" as="geometry" />
        </mxCell>
        <mxCell id="SYfL99fkJGa10WcQz1MI-8" value="- currentMapMatrix: Map*[][]" style="text;strokeColor=none;fillColor=none;align=left;verticalAlign=top;spacingLeft=4;spacingRight=4;overflow=hidden;rotatable=0;points=[[0,0.5],[1,0.5]];portConstraint=eastwest;fontStyle=0" parent="1YELGyrMm5p_oQ3cGRLv-13" vertex="1">
          <mxGeometry y="26" width="200" height="26" as="geometry" />
        </mxCell>
        <mxCell id="1YELGyrMm5p_oQ3cGRLv-14" value="- currentMap: Map*" style="text;strokeColor=none;fillColor=none;align=left;verticalAlign=top;spacingLeft=4;spacingRight=4;overflow=hidden;rotatable=0;points=[[0,0.5],[1,0.5]];portConstraint=eastwest;" parent="1YELGyrMm5p_oQ3cGRLv-13" vertex="1">
          <mxGeometry y="52" width="200" height="26" as="geometry" />
        </mxCell>
        <mxCell id="IvaEGnaUYuV3LZCd6p6z-18" value="- player: Player*" style="text;strokeColor=none;fillColor=none;align=left;verticalAlign=top;spacingLeft=4;spacingRight=4;overflow=hidden;rotatable=0;points=[[0,0.5],[1,0.5]];portConstraint=eastwest;" parent="1YELGyrMm5p_oQ3cGRLv-13" vertex="1">
          <mxGeometry y="78" width="200" height="26" as="geometry" />
        </mxCell>
        <mxCell id="1YELGyrMm5p_oQ3cGRLv-15" value="" style="line;strokeWidth=1;fillColor=none;align=left;verticalAlign=middle;spacingTop=-1;spacingLeft=3;spacingRight=3;rotatable=0;labelPosition=right;points=[];portConstraint=eastwest;strokeColor=inherit;" parent="1YELGyrMm5p_oQ3cGRLv-13" vertex="1">
          <mxGeometry y="104" width="200" height="8" as="geometry" />
        </mxCell>
        <mxCell id="1YELGyrMm5p_oQ3cGRLv-16" value="+ Game()" style="text;strokeColor=none;fillColor=none;align=left;verticalAlign=top;spacingLeft=4;spacingRight=4;overflow=hidden;rotatable=0;points=[[0,0.5],[1,0.5]];portConstraint=eastwest;" parent="1YELGyrMm5p_oQ3cGRLv-13" vertex="1">
          <mxGeometry y="112" width="200" height="26" as="geometry" />
        </mxCell>
        <mxCell id="1YELGyrMm5p_oQ3cGRLv-17" value="+ createNewGame(): Game" style="text;strokeColor=none;fillColor=none;align=left;verticalAlign=top;spacingLeft=4;spacingRight=4;overflow=hidden;rotatable=0;points=[[0,0.5],[1,0.5]];portConstraint=eastwest;fontStyle=4" parent="1YELGyrMm5p_oQ3cGRLv-13" vertex="1">
          <mxGeometry y="138" width="200" height="26" as="geometry" />
        </mxCell>
        <mxCell id="5KssfI9YTyOkdyey-keK-41" value="+ getPlayer(): Player*" style="text;strokeColor=none;fillColor=none;align=left;verticalAlign=top;spacingLeft=4;spacingRight=4;overflow=hidden;rotatable=0;points=[[0,0.5],[1,0.5]];portConstraint=eastwest;" parent="1YELGyrMm5p_oQ3cGRLv-13" vertex="1">
          <mxGeometry y="164" width="200" height="26" as="geometry" />
        </mxCell>
        <mxCell id="1YELGyrMm5p_oQ3cGRLv-40" value="Map" style="swimlane;fontStyle=1;align=center;verticalAlign=top;childLayout=stackLayout;horizontal=1;startSize=26;horizontalStack=0;resizeParent=1;resizeParentMax=0;resizeLast=0;collapsible=1;marginBottom=0;" parent="1" vertex="1">
          <mxGeometry x="400" y="638" width="200" height="138" as="geometry" />
        </mxCell>
        <mxCell id="1YELGyrMm5p_oQ3cGRLv-41" value="- objectMatrix: MapObject*[][]" style="text;strokeColor=none;fillColor=none;align=left;verticalAlign=top;spacingLeft=4;spacingRight=4;overflow=hidden;rotatable=0;points=[[0,0.5],[1,0.5]];portConstraint=eastwest;" parent="1YELGyrMm5p_oQ3cGRLv-40" vertex="1">
          <mxGeometry y="26" width="200" height="26" as="geometry" />
        </mxCell>
        <mxCell id="SSqiaNLJgeLojGb0BakC-44" value="- isLightened: bool" style="text;strokeColor=none;fillColor=none;align=left;verticalAlign=top;spacingLeft=4;spacingRight=4;overflow=hidden;rotatable=0;points=[[0,0.5],[1,0.5]];portConstraint=eastwest;" parent="1YELGyrMm5p_oQ3cGRLv-40" vertex="1">
          <mxGeometry y="52" width="200" height="26" as="geometry" />
        </mxCell>
        <mxCell id="1YELGyrMm5p_oQ3cGRLv-42" value="" style="line;strokeWidth=1;fillColor=none;align=left;verticalAlign=middle;spacingTop=-1;spacingLeft=3;spacingRight=3;rotatable=0;labelPosition=right;points=[];portConstraint=eastwest;strokeColor=inherit;" parent="1YELGyrMm5p_oQ3cGRLv-40" vertex="1">
          <mxGeometry y="78" width="200" height="8" as="geometry" />
        </mxCell>
        <mxCell id="1YELGyrMm5p_oQ3cGRLv-43" value="+ Map(mapMatrix: MapObject*[][])" style="text;strokeColor=none;fillColor=none;align=left;verticalAlign=top;spacingLeft=4;spacingRight=4;overflow=hidden;rotatable=0;points=[[0,0.5],[1,0.5]];portConstraint=eastwest;" parent="1YELGyrMm5p_oQ3cGRLv-40" vertex="1">
          <mxGeometry y="86" width="200" height="26" as="geometry" />
        </mxCell>
        <mxCell id="5KssfI9YTyOkdyey-keK-39" value="+ render(): string" style="text;strokeColor=none;fillColor=none;align=left;verticalAlign=top;spacingLeft=4;spacingRight=4;overflow=hidden;rotatable=0;points=[[0,0.5],[1,0.5]];portConstraint=eastwest;" parent="1YELGyrMm5p_oQ3cGRLv-40" vertex="1">
          <mxGeometry y="112" width="200" height="26" as="geometry" />
        </mxCell>
        <mxCell id="IvaEGnaUYuV3LZCd6p6z-8" style="edgeStyle=orthogonalEdgeStyle;rounded=0;orthogonalLoop=1;jettySize=auto;html=1;entryX=0.5;entryY=0;entryDx=0;entryDy=0;startArrow=diamond;startFill=1;endArrow=classic;endFill=1;" parent="1" source="1YELGyrMm5p_oQ3cGRLv-13" target="1YELGyrMm5p_oQ3cGRLv-40" edge="1">
          <mxGeometry relative="1" as="geometry">
            <Array as="points">
              <mxPoint x="500" y="600" />
            </Array>
            <mxPoint x="239.99999999999977" y="598.9999999999998" as="sourcePoint" />
          </mxGeometry>
        </mxCell>
        <mxCell id="SYfL99fkJGa10WcQz1MI-2" value="consists of" style="edgeLabel;html=1;align=center;verticalAlign=middle;resizable=0;points=[];" parent="IvaEGnaUYuV3LZCd6p6z-8" vertex="1" connectable="0">
          <mxGeometry x="0.5262" y="-2" relative="1" as="geometry">
            <mxPoint x="-107" y="-2" as="offset" />
          </mxGeometry>
        </mxCell>
        <mxCell id="SYfL99fkJGa10WcQz1MI-3" value="0...N" style="edgeLabel;html=1;align=center;verticalAlign=middle;resizable=0;points=[];" parent="IvaEGnaUYuV3LZCd6p6z-8" vertex="1" connectable="0">
          <mxGeometry x="0.0992" y="1" relative="1" as="geometry">
            <mxPoint x="48" y="-9" as="offset" />
          </mxGeometry>
        </mxCell>
        <mxCell id="SYfL99fkJGa10WcQz1MI-5" value="1" style="edgeLabel;html=1;align=center;verticalAlign=middle;resizable=0;points=[];" parent="IvaEGnaUYuV3LZCd6p6z-8" vertex="1" connectable="0">
          <mxGeometry x="-0.7762" y="2" relative="1" as="geometry">
            <mxPoint x="-7" y="-7" as="offset" />
          </mxGeometry>
        </mxCell>
        <mxCell id="IvaEGnaUYuV3LZCd6p6z-10" value="Player" style="swimlane;fontStyle=1;align=center;verticalAlign=top;childLayout=stackLayout;horizontal=1;startSize=26;horizontalStack=0;resizeParent=1;resizeParentMax=0;resizeLast=0;collapsible=1;marginBottom=0;" parent="1" vertex="1">
          <mxGeometry x="170" y="841" width="280" height="294" as="geometry" />
        </mxCell>
        <mxCell id="IvaEGnaUYuV3LZCd6p6z-11" value="- x: short" style="text;strokeColor=none;fillColor=none;align=left;verticalAlign=top;spacingLeft=4;spacingRight=4;overflow=hidden;rotatable=0;points=[[0,0.5],[1,0.5]];portConstraint=eastwest;" parent="IvaEGnaUYuV3LZCd6p6z-10" vertex="1">
          <mxGeometry y="26" width="280" height="26" as="geometry" />
        </mxCell>
        <mxCell id="SYfL99fkJGa10WcQz1MI-1" value="- y: short" style="text;strokeColor=none;fillColor=none;align=left;verticalAlign=top;spacingLeft=4;spacingRight=4;overflow=hidden;rotatable=0;points=[[0,0.5],[1,0.5]];portConstraint=eastwest;" parent="IvaEGnaUYuV3LZCd6p6z-10" vertex="1">
          <mxGeometry y="52" width="280" height="26" as="geometry" />
        </mxCell>
        <mxCell id="gpoH1uDZ4-0kyc8-w-HE-12" value="- health: int" style="text;strokeColor=none;fillColor=none;align=left;verticalAlign=top;spacingLeft=4;spacingRight=4;overflow=hidden;rotatable=0;points=[[0,0.5],[1,0.5]];portConstraint=eastwest;" parent="IvaEGnaUYuV3LZCd6p6z-10" vertex="1">
          <mxGeometry y="78" width="280" height="26" as="geometry" />
        </mxCell>
        <mxCell id="5KssfI9YTyOkdyey-keK-29" value="- attacks: PlayerAttack*[]" style="text;strokeColor=none;fillColor=none;align=left;verticalAlign=top;spacingLeft=4;spacingRight=4;overflow=hidden;rotatable=0;points=[[0,0.5],[1,0.5]];portConstraint=eastwest;" parent="IvaEGnaUYuV3LZCd6p6z-10" vertex="1">
          <mxGeometry y="104" width="280" height="26" as="geometry" />
        </mxCell>
        <mxCell id="if6bvaiVuXyFPU6r5-wz-16" value="- inventory: Inventory*" style="text;strokeColor=none;fillColor=none;align=left;verticalAlign=top;spacingLeft=4;spacingRight=4;overflow=hidden;rotatable=0;points=[[0,0.5],[1,0.5]];portConstraint=eastwest;" parent="IvaEGnaUYuV3LZCd6p6z-10" vertex="1">
          <mxGeometry y="130" width="280" height="26" as="geometry" />
        </mxCell>
        <mxCell id="IvaEGnaUYuV3LZCd6p6z-12" value="" style="line;strokeWidth=1;fillColor=none;align=left;verticalAlign=middle;spacingTop=-1;spacingLeft=3;spacingRight=3;rotatable=0;labelPosition=right;points=[];portConstraint=eastwest;strokeColor=inherit;" parent="IvaEGnaUYuV3LZCd6p6z-10" vertex="1">
          <mxGeometry y="156" width="280" height="8" as="geometry" />
        </mxCell>
        <mxCell id="IvaEGnaUYuV3LZCd6p6z-13" value="+ Player(x: short, y: short)" style="text;strokeColor=none;fillColor=none;align=left;verticalAlign=top;spacingLeft=4;spacingRight=4;overflow=hidden;rotatable=0;points=[[0,0.5],[1,0.5]];portConstraint=eastwest;" parent="IvaEGnaUYuV3LZCd6p6z-10" vertex="1">
          <mxGeometry y="164" width="280" height="26" as="geometry" />
        </mxCell>
        <mxCell id="5KssfI9YTyOkdyey-keK-30" value="+ addAttack(newAttack: PlayerAttack*)" style="text;strokeColor=none;fillColor=none;align=left;verticalAlign=top;spacingLeft=4;spacingRight=4;overflow=hidden;rotatable=0;points=[[0,0.5],[1,0.5]];portConstraint=eastwest;" parent="IvaEGnaUYuV3LZCd6p6z-10" vertex="1">
          <mxGeometry y="190" width="280" height="26" as="geometry" />
        </mxCell>
        <mxCell id="gpoH1uDZ4-0kyc8-w-HE-13" value="+ calculateHealth(incomingDamage: unsigned int)" style="text;strokeColor=none;fillColor=none;align=left;verticalAlign=top;spacingLeft=4;spacingRight=4;overflow=hidden;rotatable=0;points=[[0,0.5],[1,0.5]];portConstraint=eastwest;" parent="IvaEGnaUYuV3LZCd6p6z-10" vertex="1">
          <mxGeometry y="216" width="280" height="26" as="geometry" />
        </mxCell>
        <mxCell id="o90K8o9Egq8ZHoy3wgxz-6" value="+ useHeal(healIndex: unsigned int)" style="text;strokeColor=none;fillColor=none;align=left;verticalAlign=top;spacingLeft=4;spacingRight=4;overflow=hidden;rotatable=0;points=[[0,0.5],[1,0.5]];portConstraint=eastwest;" parent="IvaEGnaUYuV3LZCd6p6z-10" vertex="1">
          <mxGeometry y="242" width="280" height="26" as="geometry" />
        </mxCell>
        <mxCell id="o90K8o9Egq8ZHoy3wgxz-33" value="+ getInventory(): Inventory*" style="text;strokeColor=none;fillColor=none;align=left;verticalAlign=top;spacingLeft=4;spacingRight=4;overflow=hidden;rotatable=0;points=[[0,0.5],[1,0.5]];portConstraint=eastwest;" parent="IvaEGnaUYuV3LZCd6p6z-10" vertex="1">
          <mxGeometry y="268" width="280" height="26" as="geometry" />
        </mxCell>
        <mxCell id="5KssfI9YTyOkdyey-keK-31" style="edgeStyle=orthogonalEdgeStyle;rounded=0;orthogonalLoop=1;jettySize=auto;html=1;entryX=0;entryY=0.5;entryDx=0;entryDy=0;startArrow=diamond;startFill=1;" parent="1" source="IvaEGnaUYuV3LZCd6p6z-14" target="5KssfI9YTyOkdyey-keK-13" edge="1">
          <mxGeometry relative="1" as="geometry">
            <Array as="points">
              <mxPoint x="680" y="991" />
              <mxPoint x="920" y="991" />
              <mxPoint x="920" y="953" />
            </Array>
          </mxGeometry>
        </mxCell>
        <mxCell id="5KssfI9YTyOkdyey-keK-35" value="1" style="edgeLabel;html=1;align=center;verticalAlign=middle;resizable=0;points=[];" parent="5KssfI9YTyOkdyey-keK-31" vertex="1" connectable="0">
          <mxGeometry x="-0.5793" y="1" relative="1" as="geometry">
            <mxPoint x="-263" y="-40" as="offset" />
          </mxGeometry>
        </mxCell>
        <mxCell id="5KssfI9YTyOkdyey-keK-36" value="1" style="edgeLabel;html=1;align=center;verticalAlign=middle;resizable=0;points=[];" parent="5KssfI9YTyOkdyey-keK-31" vertex="1" connectable="0">
          <mxGeometry x="0.0637" y="1" relative="1" as="geometry">
            <mxPoint x="147" y="-20" as="offset" />
          </mxGeometry>
        </mxCell>
        <mxCell id="5KssfI9YTyOkdyey-keK-56" value="carries render&lt;br&gt;data in" style="edgeLabel;html=1;align=center;verticalAlign=middle;resizable=0;points=[];" parent="5KssfI9YTyOkdyey-keK-31" vertex="1" connectable="0">
          <mxGeometry x="0.412" relative="1" as="geometry">
            <mxPoint x="50" y="-21" as="offset" />
          </mxGeometry>
        </mxCell>
        <mxCell id="IvaEGnaUYuV3LZCd6p6z-14" value="CharRenderable" style="swimlane;fontStyle=3;align=center;verticalAlign=top;childLayout=stackLayout;horizontal=1;startSize=26;horizontalStack=0;resizeParent=1;resizeParentMax=0;resizeLast=0;collapsible=1;marginBottom=0;" parent="1" vertex="1">
          <mxGeometry x="560" y="840" width="240" height="112" as="geometry" />
        </mxCell>
        <mxCell id="kLu0ASWQnbC9X_YH6ufA-3" value="- charData: CharData*" style="text;strokeColor=none;fillColor=none;align=left;verticalAlign=top;spacingLeft=4;spacingRight=4;overflow=hidden;rotatable=0;points=[[0,0.5],[1,0.5]];portConstraint=eastwest;" parent="IvaEGnaUYuV3LZCd6p6z-14" vertex="1">
          <mxGeometry y="26" width="240" height="26" as="geometry" />
        </mxCell>
        <mxCell id="IvaEGnaUYuV3LZCd6p6z-16" value="" style="line;strokeWidth=1;fillColor=none;align=left;verticalAlign=middle;spacingTop=-1;spacingLeft=3;spacingRight=3;rotatable=0;labelPosition=right;points=[];portConstraint=eastwest;strokeColor=inherit;" parent="IvaEGnaUYuV3LZCd6p6z-14" vertex="1">
          <mxGeometry y="52" width="240" height="8" as="geometry" />
        </mxCell>
        <mxCell id="5KssfI9YTyOkdyey-keK-1" value="# CharRenderable(charData: CharData*)" style="text;strokeColor=none;fillColor=none;align=left;verticalAlign=top;spacingLeft=4;spacingRight=4;overflow=hidden;rotatable=0;points=[[0,0.5],[1,0.5]];portConstraint=eastwest;" parent="IvaEGnaUYuV3LZCd6p6z-14" vertex="1">
          <mxGeometry y="60" width="240" height="26" as="geometry" />
        </mxCell>
        <mxCell id="IvaEGnaUYuV3LZCd6p6z-17" value="+ renderChar(): string" style="text;strokeColor=none;fillColor=none;align=left;verticalAlign=top;spacingLeft=4;spacingRight=4;overflow=hidden;rotatable=0;points=[[0,0.5],[1,0.5]];portConstraint=eastwest;" parent="IvaEGnaUYuV3LZCd6p6z-14" vertex="1">
          <mxGeometry y="86" width="240" height="26" as="geometry" />
        </mxCell>
        <mxCell id="IvaEGnaUYuV3LZCd6p6z-19" value="1" style="edgeStyle=orthogonalEdgeStyle;rounded=0;orthogonalLoop=1;jettySize=auto;html=1;exitX=1;exitY=0.5;exitDx=0;exitDy=0;entryX=0.499;entryY=0.015;entryDx=0;entryDy=0;startArrow=diamond;startFill=1;strokeWidth=1;entryPerimeter=0;" parent="1" source="IvaEGnaUYuV3LZCd6p6z-18" target="IvaEGnaUYuV3LZCd6p6z-10" edge="1">
          <mxGeometry x="-0.8937" y="12" relative="1" as="geometry">
            <Array as="points">
              <mxPoint x="310" y="651" />
            </Array>
            <mxPoint as="offset" />
            <mxPoint x="244" y="676.0000000000001" as="sourcePoint" />
            <mxPoint x="314" y="839" as="targetPoint" />
          </mxGeometry>
        </mxCell>
        <mxCell id="SYfL99fkJGa10WcQz1MI-7" value="contains" style="edgeLabel;html=1;align=center;verticalAlign=middle;resizable=0;points=[];" parent="IvaEGnaUYuV3LZCd6p6z-19" vertex="1" connectable="0">
          <mxGeometry x="0.2343" y="-2" relative="1" as="geometry">
            <mxPoint x="2" y="28" as="offset" />
          </mxGeometry>
        </mxCell>
        <mxCell id="SSqiaNLJgeLojGb0BakC-83" value="1" style="edgeLabel;html=1;align=center;verticalAlign=middle;resizable=0;points=[];" parent="IvaEGnaUYuV3LZCd6p6z-19" vertex="1" connectable="0">
          <mxGeometry x="0.7618" y="-2" relative="1" as="geometry">
            <mxPoint x="12" y="13" as="offset" />
          </mxGeometry>
        </mxCell>
        <mxCell id="d02Wg7IjQV8Bg_PJh1dA-13" style="edgeStyle=orthogonalEdgeStyle;rounded=0;orthogonalLoop=1;jettySize=auto;html=1;exitX=0.25;exitY=0;exitDx=0;exitDy=0;" parent="1" source="SYfL99fkJGa10WcQz1MI-13" target="d02Wg7IjQV8Bg_PJh1dA-8" edge="1">
          <mxGeometry relative="1" as="geometry">
            <Array as="points">
              <mxPoint x="1157" y="-304" />
            </Array>
          </mxGeometry>
        </mxCell>
        <mxCell id="SYfL99fkJGa10WcQz1MI-13" value="ConsoleHandler" style="swimlane;fontStyle=1;align=center;verticalAlign=top;childLayout=stackLayout;horizontal=1;startSize=26;horizontalStack=0;resizeParent=1;resizeParentMax=0;resizeLast=0;collapsible=1;marginBottom=0;" parent="1" vertex="1">
          <mxGeometry x="1014" y="-58" width="571" height="234" as="geometry" />
        </mxCell>
        <mxCell id="Z1At78-419Gx8SDF2MCW-1" value="+ setCursorPosition(x: unsigned short, y: unsigned short): void" style="text;strokeColor=none;fillColor=none;align=left;verticalAlign=top;spacingLeft=4;spacingRight=4;overflow=hidden;rotatable=0;points=[[0,0.5],[1,0.5]];portConstraint=eastwest;fontStyle=4" parent="SYfL99fkJGa10WcQz1MI-13" vertex="1">
          <mxGeometry y="26" width="571" height="26" as="geometry" />
        </mxCell>
        <mxCell id="SSqiaNLJgeLojGb0BakC-1" value="+ setConsoleTitle(title: string): void" style="text;strokeColor=none;fillColor=none;align=left;verticalAlign=top;spacingLeft=4;spacingRight=4;overflow=hidden;rotatable=0;points=[[0,0.5],[1,0.5]];portConstraint=eastwest;fontStyle=4" parent="SYfL99fkJGa10WcQz1MI-13" vertex="1">
          <mxGeometry y="52" width="571" height="26" as="geometry" />
        </mxCell>
        <mxCell id="SSqiaNLJgeLojGb0BakC-2" value="+ disableCursorVisibility(): void" style="text;strokeColor=none;fillColor=none;align=left;verticalAlign=top;spacingLeft=4;spacingRight=4;overflow=hidden;rotatable=0;points=[[0,0.5],[1,0.5]];portConstraint=eastwest;fontStyle=4" parent="SYfL99fkJGa10WcQz1MI-13" vertex="1">
          <mxGeometry y="78" width="571" height="26" as="geometry" />
        </mxCell>
        <mxCell id="SSqiaNLJgeLojGb0BakC-9" value="+ clear(): void" style="text;strokeColor=none;fillColor=none;align=left;verticalAlign=top;spacingLeft=4;spacingRight=4;overflow=hidden;rotatable=0;points=[[0,0.5],[1,0.5]];portConstraint=eastwest;fontStyle=4" parent="SYfL99fkJGa10WcQz1MI-13" vertex="1">
          <mxGeometry y="104" width="571" height="26" as="geometry" />
        </mxCell>
        <mxCell id="SYfL99fkJGa10WcQz1MI-16" value="+ handleKeyboardInput(): KeyEvent" style="text;strokeColor=none;fillColor=none;align=left;verticalAlign=top;spacingLeft=4;spacingRight=4;overflow=hidden;rotatable=0;points=[[0,0.5],[1,0.5]];portConstraint=eastwest;fontStyle=4" parent="SYfL99fkJGa10WcQz1MI-13" vertex="1">
          <mxGeometry y="130" width="571" height="26" as="geometry" />
        </mxCell>
        <mxCell id="C4OzsetbC7TLnUmvvS9r-6" value="+ getColorChar(r: unsigned char, g: unsigned char, b: unsigned char, target: CharColorTarget): string" style="text;strokeColor=none;fillColor=none;align=left;verticalAlign=top;spacingLeft=4;spacingRight=4;overflow=hidden;rotatable=0;points=[[0,0.5],[1,0.5]];portConstraint=eastwest;fontStyle=4" parent="SYfL99fkJGa10WcQz1MI-13" vertex="1">
          <mxGeometry y="156" width="571" height="26" as="geometry" />
        </mxCell>
        <mxCell id="C4OzsetbC7TLnUmvvS9r-2" value="+ getColorChar(hex: int, target: CharColorTarget): string" style="text;strokeColor=none;fillColor=none;align=left;verticalAlign=top;spacingLeft=4;spacingRight=4;overflow=hidden;rotatable=0;points=[[0,0.5],[1,0.5]];portConstraint=eastwest;fontStyle=4" parent="SYfL99fkJGa10WcQz1MI-13" vertex="1">
          <mxGeometry y="182" width="571" height="26" as="geometry" />
        </mxCell>
        <mxCell id="d02Wg7IjQV8Bg_PJh1dA-17" value="+ getFormatChar(type: ConsoleFormatType): string" style="text;strokeColor=none;fillColor=none;align=left;verticalAlign=top;spacingLeft=4;spacingRight=4;overflow=hidden;rotatable=0;points=[[0,0.5],[1,0.5]];portConstraint=eastwest;fontStyle=4" parent="SYfL99fkJGa10WcQz1MI-13" vertex="1">
          <mxGeometry y="208" width="571" height="26" as="geometry" />
        </mxCell>
        <mxCell id="SSqiaNLJgeLojGb0BakC-3" value="Window" style="swimlane;fontStyle=3;align=center;verticalAlign=top;childLayout=stackLayout;horizontal=1;startSize=26;horizontalStack=0;resizeParent=1;resizeParentMax=0;resizeLast=0;collapsible=1;marginBottom=0;" parent="1" vertex="1">
          <mxGeometry x="-71" y="-270" width="360" height="138" as="geometry" />
        </mxCell>
        <mxCell id="5KssfI9YTyOkdyey-keK-43" value="..." style="text;strokeColor=none;fillColor=none;align=left;verticalAlign=top;spacingLeft=4;spacingRight=4;overflow=hidden;rotatable=0;points=[[0,0.5],[1,0.5]];portConstraint=eastwest;" parent="SSqiaNLJgeLojGb0BakC-3" vertex="1">
          <mxGeometry y="26" width="360" height="26" as="geometry" />
        </mxCell>
        <mxCell id="5KssfI9YTyOkdyey-keK-42" value="" style="line;strokeWidth=1;fillColor=none;align=left;verticalAlign=middle;spacingTop=-1;spacingLeft=3;spacingRight=3;rotatable=0;labelPosition=right;points=[];portConstraint=eastwest;strokeColor=inherit;" parent="SSqiaNLJgeLojGb0BakC-3" vertex="1">
          <mxGeometry y="52" width="360" height="8" as="geometry" />
        </mxCell>
        <mxCell id="SSqiaNLJgeLojGb0BakC-6" value="+ render(): void" style="text;strokeColor=none;fillColor=none;align=left;verticalAlign=top;spacingLeft=4;spacingRight=4;overflow=hidden;rotatable=0;points=[[0,0.5],[1,0.5]];portConstraint=eastwest;fontStyle=2" parent="SSqiaNLJgeLojGb0BakC-3" vertex="1">
          <mxGeometry y="60" width="360" height="26" as="geometry" />
        </mxCell>
        <mxCell id="SSqiaNLJgeLojGb0BakC-7" value="+ onInput(KeyEvent* evt): void" style="text;strokeColor=none;fillColor=none;align=left;verticalAlign=top;spacingLeft=4;spacingRight=4;overflow=hidden;rotatable=0;points=[[0,0.5],[1,0.5]];portConstraint=eastwest;fontStyle=2" parent="SSqiaNLJgeLojGb0BakC-3" vertex="1">
          <mxGeometry y="86" width="360" height="26" as="geometry" />
        </mxCell>
        <mxCell id="5KssfI9YTyOkdyey-keK-44" value="..." style="text;strokeColor=none;fillColor=none;align=left;verticalAlign=top;spacingLeft=4;spacingRight=4;overflow=hidden;rotatable=0;points=[[0,0.5],[1,0.5]];portConstraint=eastwest;" parent="SSqiaNLJgeLojGb0BakC-3" vertex="1">
          <mxGeometry y="112" width="360" height="26" as="geometry" />
        </mxCell>
        <mxCell id="SSqiaNLJgeLojGb0BakC-30" style="edgeStyle=orthogonalEdgeStyle;rounded=0;orthogonalLoop=1;jettySize=auto;html=1;entryX=0.5;entryY=0;entryDx=0;entryDy=0;strokeWidth=1;startArrow=diamond;startFill=0;endArrow=classic;endFill=1;endSize=6;" parent="1" source="SSqiaNLJgeLojGb0BakC-11" target="SSqiaNLJgeLojGb0BakC-3" edge="1">
          <mxGeometry relative="1" as="geometry" />
        </mxCell>
        <mxCell id="SSqiaNLJgeLojGb0BakC-31" value="1" style="edgeLabel;html=1;align=center;verticalAlign=middle;resizable=0;points=[];" parent="SSqiaNLJgeLojGb0BakC-30" vertex="1" connectable="0">
          <mxGeometry x="0.6121" y="-2" relative="1" as="geometry">
            <mxPoint x="12" y="-1" as="offset" />
          </mxGeometry>
        </mxCell>
        <mxCell id="SSqiaNLJgeLojGb0BakC-32" value="displays/sets" style="edgeLabel;html=1;align=center;verticalAlign=middle;resizable=0;points=[];" parent="SSqiaNLJgeLojGb0BakC-30" vertex="1" connectable="0">
          <mxGeometry x="0.771" y="1" relative="1" as="geometry">
            <mxPoint as="offset" />
          </mxGeometry>
        </mxCell>
        <mxCell id="SSqiaNLJgeLojGb0BakC-82" value="1" style="edgeLabel;html=1;align=center;verticalAlign=middle;resizable=0;points=[];" parent="SSqiaNLJgeLojGb0BakC-30" vertex="1" connectable="0">
          <mxGeometry x="-0.7521" relative="1" as="geometry">
            <mxPoint x="10" y="-5" as="offset" />
          </mxGeometry>
        </mxCell>
        <mxCell id="jNlA93mwpecG7_ZBhZ2n-1" style="edgeStyle=orthogonalEdgeStyle;rounded=0;orthogonalLoop=1;jettySize=auto;html=1;entryX=0.75;entryY=0;entryDx=0;entryDy=0;startArrow=diamond;startFill=0;exitX=0;exitY=0.5;exitDx=0;exitDy=0;" parent="1" source="SSqiaNLJgeLojGb0BakC-16" target="1YELGyrMm5p_oQ3cGRLv-13" edge="1">
          <mxGeometry relative="1" as="geometry" />
        </mxCell>
        <mxCell id="jNlA93mwpecG7_ZBhZ2n-2" value="0..4" style="edgeLabel;html=1;align=center;verticalAlign=middle;resizable=0;points=[];" parent="jNlA93mwpecG7_ZBhZ2n-1" vertex="1" connectable="0">
          <mxGeometry x="0.9037" y="-1" relative="1" as="geometry">
            <mxPoint as="offset" />
          </mxGeometry>
        </mxCell>
        <mxCell id="jNlA93mwpecG7_ZBhZ2n-3" value="saves" style="edgeLabel;html=1;align=center;verticalAlign=middle;resizable=0;points=[];" parent="jNlA93mwpecG7_ZBhZ2n-1" vertex="1" connectable="0">
          <mxGeometry x="0.7747" y="-2" relative="1" as="geometry">
            <mxPoint as="offset" />
          </mxGeometry>
        </mxCell>
        <mxCell id="C4OzsetbC7TLnUmvvS9r-1" value="1" style="edgeLabel;html=1;align=center;verticalAlign=middle;resizable=0;points=[];" parent="jNlA93mwpecG7_ZBhZ2n-1" vertex="1" connectable="0">
          <mxGeometry x="-0.8513" y="2" relative="1" as="geometry">
            <mxPoint x="14" y="-20" as="offset" />
          </mxGeometry>
        </mxCell>
        <mxCell id="SSqiaNLJgeLojGb0BakC-11" value="Luminary" style="swimlane;fontStyle=1;align=center;verticalAlign=top;childLayout=stackLayout;horizontal=1;startSize=26;horizontalStack=0;resizeParent=1;resizeParentMax=0;resizeLast=0;collapsible=1;marginBottom=0;" parent="1" vertex="1">
          <mxGeometry x="260" y="40" width="280" height="242" as="geometry" />
        </mxCell>
        <mxCell id="SYfL99fkJGa10WcQz1MI-14" value="- run: bool" style="text;strokeColor=none;fillColor=none;align=left;verticalAlign=top;spacingLeft=4;spacingRight=4;overflow=hidden;rotatable=0;points=[[0,0.5],[1,0.5]];portConstraint=eastwest;fontStyle=4" parent="SSqiaNLJgeLojGb0BakC-11" vertex="1">
          <mxGeometry y="26" width="280" height="26" as="geometry" />
        </mxCell>
        <mxCell id="SSqiaNLJgeLojGb0BakC-12" value="- activeWindow: Window*" style="text;strokeColor=none;fillColor=none;align=left;verticalAlign=top;spacingLeft=4;spacingRight=4;overflow=hidden;rotatable=0;points=[[0,0.5],[1,0.5]];portConstraint=eastwest;fontStyle=4" parent="SSqiaNLJgeLojGb0BakC-11" vertex="1">
          <mxGeometry y="52" width="280" height="26" as="geometry" />
        </mxCell>
        <mxCell id="SSqiaNLJgeLojGb0BakC-16" value="- saves: Game*[]" style="text;strokeColor=none;fillColor=none;align=left;verticalAlign=top;spacingLeft=4;spacingRight=4;overflow=hidden;rotatable=0;points=[[0,0.5],[1,0.5]];portConstraint=eastwest;fontStyle=4" parent="SSqiaNLJgeLojGb0BakC-11" vertex="1">
          <mxGeometry y="78" width="280" height="26" as="geometry" />
        </mxCell>
        <mxCell id="SSqiaNLJgeLojGb0BakC-13" value="" style="line;strokeWidth=1;fillColor=none;align=left;verticalAlign=middle;spacingTop=-1;spacingLeft=3;spacingRight=3;rotatable=0;labelPosition=right;points=[];portConstraint=eastwest;strokeColor=inherit;" parent="SSqiaNLJgeLojGb0BakC-11" vertex="1">
          <mxGeometry y="104" width="280" height="8" as="geometry" />
        </mxCell>
        <mxCell id="dk_xrq-wJzKG0J_7sKqm-1" value="+ initialize(): void" style="text;strokeColor=none;fillColor=none;align=left;verticalAlign=top;spacingLeft=4;spacingRight=4;overflow=hidden;rotatable=0;points=[[0,0.5],[1,0.5]];portConstraint=eastwest;fontStyle=4" vertex="1" parent="SSqiaNLJgeLojGb0BakC-11">
          <mxGeometry y="112" width="280" height="26" as="geometry" />
        </mxCell>
        <mxCell id="SSqiaNLJgeLojGb0BakC-14" value="+ startLoop(): void" style="text;strokeColor=none;fillColor=none;align=left;verticalAlign=top;spacingLeft=4;spacingRight=4;overflow=hidden;rotatable=0;points=[[0,0.5],[1,0.5]];portConstraint=eastwest;fontStyle=4" parent="SSqiaNLJgeLojGb0BakC-11" vertex="1">
          <mxGeometry y="138" width="280" height="26" as="geometry" />
        </mxCell>
        <mxCell id="SSqiaNLJgeLojGb0BakC-17" value="+ exit(): void" style="text;strokeColor=none;fillColor=none;align=left;verticalAlign=top;spacingLeft=4;spacingRight=4;overflow=hidden;rotatable=0;points=[[0,0.5],[1,0.5]];portConstraint=eastwest;fontStyle=4" parent="SSqiaNLJgeLojGb0BakC-11" vertex="1">
          <mxGeometry y="164" width="280" height="26" as="geometry" />
        </mxCell>
        <mxCell id="SSqiaNLJgeLojGb0BakC-85" value="+ setCurrentWindow(newWin: Window*): void" style="text;strokeColor=none;fillColor=none;align=left;verticalAlign=top;spacingLeft=4;spacingRight=4;overflow=hidden;rotatable=0;points=[[0,0.5],[1,0.5]];portConstraint=eastwest;fontStyle=4" parent="SSqiaNLJgeLojGb0BakC-11" vertex="1">
          <mxGeometry y="190" width="280" height="26" as="geometry" />
        </mxCell>
        <mxCell id="jNlA93mwpecG7_ZBhZ2n-5" value="+ getActiveWindow(): Window*" style="text;strokeColor=none;fillColor=none;align=left;verticalAlign=top;spacingLeft=4;spacingRight=4;overflow=hidden;rotatable=0;points=[[0,0.5],[1,0.5]];portConstraint=eastwest;fontStyle=4" parent="SSqiaNLJgeLojGb0BakC-11" vertex="1">
          <mxGeometry y="216" width="280" height="26" as="geometry" />
        </mxCell>
        <mxCell id="SSqiaNLJgeLojGb0BakC-26" style="edgeStyle=orthogonalEdgeStyle;rounded=0;orthogonalLoop=1;jettySize=auto;html=1;entryX=1;entryY=0.5;entryDx=0;entryDy=0;strokeWidth=1;startArrow=none;startFill=0;endArrow=classic;endFill=1;" parent="1" source="SSqiaNLJgeLojGb0BakC-18" target="SSqiaNLJgeLojGb0BakC-7" edge="1">
          <mxGeometry relative="1" as="geometry" />
        </mxCell>
        <mxCell id="SSqiaNLJgeLojGb0BakC-33" value="passes key&lt;br&gt;input data" style="edgeLabel;html=1;align=center;verticalAlign=middle;resizable=0;points=[];" parent="SSqiaNLJgeLojGb0BakC-26" vertex="1" connectable="0">
          <mxGeometry x="0.6501" y="1" relative="1" as="geometry">
            <mxPoint x="11" y="-20" as="offset" />
          </mxGeometry>
        </mxCell>
        <mxCell id="SSqiaNLJgeLojGb0BakC-34" value="1" style="edgeLabel;html=1;align=center;verticalAlign=middle;resizable=0;points=[];" parent="SSqiaNLJgeLojGb0BakC-26" vertex="1" connectable="0">
          <mxGeometry x="0.5576" y="-1" relative="1" as="geometry">
            <mxPoint y="16" as="offset" />
          </mxGeometry>
        </mxCell>
        <mxCell id="SSqiaNLJgeLojGb0BakC-48" value="1" style="edgeLabel;html=1;align=center;verticalAlign=middle;resizable=0;points=[];" parent="SSqiaNLJgeLojGb0BakC-26" vertex="1" connectable="0">
          <mxGeometry x="-0.7932" relative="1" as="geometry">
            <mxPoint x="10" y="-7" as="offset" />
          </mxGeometry>
        </mxCell>
        <mxCell id="SSqiaNLJgeLojGb0BakC-47" style="edgeStyle=orthogonalEdgeStyle;rounded=0;orthogonalLoop=1;jettySize=auto;html=1;strokeWidth=1;startArrow=none;startFill=0;endArrow=classic;endFill=1;endSize=6;entryX=1;entryY=0.5;entryDx=0;entryDy=0;" parent="1" source="SYfL99fkJGa10WcQz1MI-13" target="SSqiaNLJgeLojGb0BakC-18" edge="1">
          <mxGeometry relative="1" as="geometry">
            <Array as="points">
              <mxPoint x="934" y="88" />
              <mxPoint x="934" y="268" />
            </Array>
            <mxPoint x="970" y="420" as="sourcePoint" />
            <mxPoint x="950" y="340" as="targetPoint" />
          </mxGeometry>
        </mxCell>
        <mxCell id="SSqiaNLJgeLojGb0BakC-49" value="1" style="edgeLabel;html=1;align=center;verticalAlign=middle;resizable=0;points=[];" parent="SSqiaNLJgeLojGb0BakC-47" vertex="1" connectable="0">
          <mxGeometry x="-0.8483" y="-1" relative="1" as="geometry">
            <mxPoint x="2" y="-11" as="offset" />
          </mxGeometry>
        </mxCell>
        <mxCell id="SSqiaNLJgeLojGb0BakC-50" value="1" style="edgeLabel;html=1;align=center;verticalAlign=middle;resizable=0;points=[];" parent="SSqiaNLJgeLojGb0BakC-47" vertex="1" connectable="0">
          <mxGeometry x="0.727" relative="1" as="geometry">
            <mxPoint x="8" y="-12" as="offset" />
          </mxGeometry>
        </mxCell>
        <mxCell id="jNlA93mwpecG7_ZBhZ2n-4" value="packs key input&lt;br&gt;data via" style="edgeLabel;html=1;align=center;verticalAlign=middle;resizable=0;points=[];" parent="SSqiaNLJgeLojGb0BakC-47" vertex="1" connectable="0">
          <mxGeometry x="0.4696" y="-2" relative="1" as="geometry">
            <mxPoint x="5" y="-41" as="offset" />
          </mxGeometry>
        </mxCell>
        <mxCell id="SSqiaNLJgeLojGb0BakC-18" value="KeyEvent" style="swimlane;fontStyle=1;align=center;verticalAlign=top;childLayout=stackLayout;horizontal=1;startSize=26;horizontalStack=0;resizeParent=1;resizeParentMax=0;resizeLast=0;collapsible=1;marginBottom=0;" parent="1" vertex="1">
          <mxGeometry x="640" y="160" width="240" height="216" as="geometry" />
        </mxCell>
        <mxCell id="SSqiaNLJgeLojGb0BakC-19" value="- key: int" style="text;strokeColor=none;fillColor=none;align=left;verticalAlign=top;spacingLeft=4;spacingRight=4;overflow=hidden;rotatable=0;points=[[0,0.5],[1,0.5]];portConstraint=eastwest;" parent="SSqiaNLJgeLojGb0BakC-18" vertex="1">
          <mxGeometry y="26" width="240" height="26" as="geometry" />
        </mxCell>
        <mxCell id="SSqiaNLJgeLojGb0BakC-22" value="- arrowEscaped: bool" style="text;strokeColor=none;fillColor=none;align=left;verticalAlign=top;spacingLeft=4;spacingRight=4;overflow=hidden;rotatable=0;points=[[0,0.5],[1,0.5]];portConstraint=eastwest;" parent="SSqiaNLJgeLojGb0BakC-18" vertex="1">
          <mxGeometry y="52" width="240" height="26" as="geometry" />
        </mxCell>
        <mxCell id="5KssfI9YTyOkdyey-keK-53" value="..." style="text;strokeColor=none;fillColor=none;align=left;verticalAlign=top;spacingLeft=4;spacingRight=4;overflow=hidden;rotatable=0;points=[[0,0.5],[1,0.5]];portConstraint=eastwest;" parent="SSqiaNLJgeLojGb0BakC-18" vertex="1">
          <mxGeometry y="78" width="240" height="26" as="geometry" />
        </mxCell>
        <mxCell id="SSqiaNLJgeLojGb0BakC-20" value="" style="line;strokeWidth=1;fillColor=none;align=left;verticalAlign=middle;spacingTop=-1;spacingLeft=3;spacingRight=3;rotatable=0;labelPosition=right;points=[];portConstraint=eastwest;strokeColor=inherit;" parent="SSqiaNLJgeLojGb0BakC-18" vertex="1">
          <mxGeometry y="104" width="240" height="8" as="geometry" />
        </mxCell>
        <mxCell id="SSqiaNLJgeLojGb0BakC-21" value="+ KeyEvent(key: int, arrowEscaped: bool)" style="text;strokeColor=none;fillColor=none;align=left;verticalAlign=top;spacingLeft=4;spacingRight=4;overflow=hidden;rotatable=0;points=[[0,0.5],[1,0.5]];portConstraint=eastwest;" parent="SSqiaNLJgeLojGb0BakC-18" vertex="1">
          <mxGeometry y="112" width="240" height="26" as="geometry" />
        </mxCell>
        <mxCell id="SSqiaNLJgeLojGb0BakC-27" value="+ getKey(): int" style="text;strokeColor=none;fillColor=none;align=left;verticalAlign=top;spacingLeft=4;spacingRight=4;overflow=hidden;rotatable=0;points=[[0,0.5],[1,0.5]];portConstraint=eastwest;" parent="SSqiaNLJgeLojGb0BakC-18" vertex="1">
          <mxGeometry y="138" width="240" height="26" as="geometry" />
        </mxCell>
        <mxCell id="SSqiaNLJgeLojGb0BakC-28" value="+ isArrowEscaped(): bool" style="text;strokeColor=none;fillColor=none;align=left;verticalAlign=top;spacingLeft=4;spacingRight=4;overflow=hidden;rotatable=0;points=[[0,0.5],[1,0.5]];portConstraint=eastwest;" parent="SSqiaNLJgeLojGb0BakC-18" vertex="1">
          <mxGeometry y="164" width="240" height="26" as="geometry" />
        </mxCell>
        <mxCell id="5KssfI9YTyOkdyey-keK-54" value="..." style="text;strokeColor=none;fillColor=none;align=left;verticalAlign=top;spacingLeft=4;spacingRight=4;overflow=hidden;rotatable=0;points=[[0,0.5],[1,0.5]];portConstraint=eastwest;" parent="SSqiaNLJgeLojGb0BakC-18" vertex="1">
          <mxGeometry y="190" width="240" height="26" as="geometry" />
        </mxCell>
        <mxCell id="SSqiaNLJgeLojGb0BakC-42" style="edgeStyle=orthogonalEdgeStyle;rounded=0;orthogonalLoop=1;jettySize=auto;html=1;entryX=0.5;entryY=0;entryDx=0;entryDy=0;strokeWidth=1;startArrow=none;startFill=0;endArrow=block;endFill=0;endSize=6;" parent="1" source="SSqiaNLJgeLojGb0BakC-35" target="IvaEGnaUYuV3LZCd6p6z-14" edge="1">
          <mxGeometry relative="1" as="geometry" />
        </mxCell>
        <mxCell id="5KssfI9YTyOkdyey-keK-32" style="edgeStyle=orthogonalEdgeStyle;rounded=0;orthogonalLoop=1;jettySize=auto;html=1;entryX=0.5;entryY=0;entryDx=0;entryDy=0;startArrow=diamond;startFill=1;exitX=1;exitY=0.5;exitDx=0;exitDy=0;" parent="1" source="SSqiaNLJgeLojGb0BakC-35" target="5KssfI9YTyOkdyey-keK-7" edge="1">
          <mxGeometry relative="1" as="geometry" />
        </mxCell>
        <mxCell id="5KssfI9YTyOkdyey-keK-33" value="1" style="edgeLabel;html=1;align=center;verticalAlign=middle;resizable=0;points=[];" parent="5KssfI9YTyOkdyey-keK-32" vertex="1" connectable="0">
          <mxGeometry x="-0.7918" y="2" relative="1" as="geometry">
            <mxPoint x="-9" y="-10" as="offset" />
          </mxGeometry>
        </mxCell>
        <mxCell id="5KssfI9YTyOkdyey-keK-34" value="1" style="edgeLabel;html=1;align=center;verticalAlign=middle;resizable=0;points=[];" parent="5KssfI9YTyOkdyey-keK-32" vertex="1" connectable="0">
          <mxGeometry x="0.7732" y="3" relative="1" as="geometry">
            <mxPoint x="7" y="20" as="offset" />
          </mxGeometry>
        </mxCell>
        <mxCell id="5KssfI9YTyOkdyey-keK-55" value="carries render&lt;br&gt;data in" style="edgeLabel;html=1;align=center;verticalAlign=middle;resizable=0;points=[];" parent="5KssfI9YTyOkdyey-keK-32" vertex="1" connectable="0">
          <mxGeometry x="0.6139" y="2" relative="1" as="geometry">
            <mxPoint x="-2" y="12" as="offset" />
          </mxGeometry>
        </mxCell>
        <mxCell id="SSqiaNLJgeLojGb0BakC-35" value="MapObject" style="swimlane;fontStyle=3;align=center;verticalAlign=top;childLayout=stackLayout;horizontal=1;startSize=26;horizontalStack=0;resizeParent=1;resizeParentMax=0;resizeLast=0;collapsible=1;marginBottom=0;" parent="1" vertex="1">
          <mxGeometry x="680" y="599" width="440" height="164" as="geometry" />
        </mxCell>
        <mxCell id="SSqiaNLJgeLojGb0BakC-36" value="- lightCharData: CharData*" style="text;strokeColor=none;fillColor=none;align=left;verticalAlign=top;spacingLeft=4;spacingRight=4;overflow=hidden;rotatable=0;points=[[0,0.5],[1,0.5]];portConstraint=eastwest;" parent="SSqiaNLJgeLojGb0BakC-35" vertex="1">
          <mxGeometry y="26" width="440" height="26" as="geometry" />
        </mxCell>
        <mxCell id="5KssfI9YTyOkdyey-keK-28" value="- isObstacle: bool" style="text;strokeColor=none;fillColor=none;align=left;verticalAlign=top;spacingLeft=4;spacingRight=4;overflow=hidden;rotatable=0;points=[[0,0.5],[1,0.5]];portConstraint=eastwest;" parent="SSqiaNLJgeLojGb0BakC-35" vertex="1">
          <mxGeometry y="52" width="440" height="26" as="geometry" />
        </mxCell>
        <mxCell id="SSqiaNLJgeLojGb0BakC-37" value="" style="line;strokeWidth=1;fillColor=none;align=left;verticalAlign=middle;spacingTop=-1;spacingLeft=3;spacingRight=3;rotatable=0;labelPosition=right;points=[];portConstraint=eastwest;strokeColor=inherit;" parent="SSqiaNLJgeLojGb0BakC-35" vertex="1">
          <mxGeometry y="78" width="440" height="8" as="geometry" />
        </mxCell>
        <mxCell id="5KssfI9YTyOkdyey-keK-19" value="# MapObject(charData: CharData*, lightCharData: CharData*, isObstacle: bool)" style="text;strokeColor=none;fillColor=none;align=left;verticalAlign=top;spacingLeft=4;spacingRight=4;overflow=hidden;rotatable=0;points=[[0,0.5],[1,0.5]];portConstraint=eastwest;" parent="SSqiaNLJgeLojGb0BakC-35" vertex="1">
          <mxGeometry y="86" width="440" height="26" as="geometry" />
        </mxCell>
        <mxCell id="SSqiaNLJgeLojGb0BakC-38" value="+ renderChar(isLightened: bool): string" style="text;strokeColor=none;fillColor=none;align=left;verticalAlign=top;spacingLeft=4;spacingRight=4;overflow=hidden;rotatable=0;points=[[0,0.5],[1,0.5]];portConstraint=eastwest;" parent="SSqiaNLJgeLojGb0BakC-35" vertex="1">
          <mxGeometry y="112" width="440" height="26" as="geometry" />
        </mxCell>
        <mxCell id="5KssfI9YTyOkdyey-keK-27" value="..." style="text;strokeColor=none;fillColor=none;align=left;verticalAlign=top;spacingLeft=4;spacingRight=4;overflow=hidden;rotatable=0;points=[[0,0.5],[1,0.5]];portConstraint=eastwest;" parent="SSqiaNLJgeLojGb0BakC-35" vertex="1">
          <mxGeometry y="138" width="440" height="26" as="geometry" />
        </mxCell>
        <mxCell id="5KssfI9YTyOkdyey-keK-7" value="CharData" style="swimlane;fontStyle=1;align=center;verticalAlign=top;childLayout=stackLayout;horizontal=1;startSize=26;horizontalStack=0;resizeParent=1;resizeParentMax=0;resizeLast=0;collapsible=1;marginBottom=0;" parent="1" vertex="1">
          <mxGeometry x="1040" y="802" width="480" height="320" as="geometry" />
        </mxCell>
        <mxCell id="5KssfI9YTyOkdyey-keK-8" value="- character: char" style="text;strokeColor=none;fillColor=none;align=left;verticalAlign=top;spacingLeft=4;spacingRight=4;overflow=hidden;rotatable=0;points=[[0,0.5],[1,0.5]];portConstraint=eastwest;" parent="5KssfI9YTyOkdyey-keK-7" vertex="1">
          <mxGeometry y="26" width="480" height="26" as="geometry" />
        </mxCell>
        <mxCell id="5KssfI9YTyOkdyey-keK-9" value="- charColor: unsigned int" style="text;strokeColor=none;fillColor=none;align=left;verticalAlign=top;spacingLeft=4;spacingRight=4;overflow=hidden;rotatable=0;points=[[0,0.5],[1,0.5]];portConstraint=eastwest;" parent="5KssfI9YTyOkdyey-keK-7" vertex="1">
          <mxGeometry y="52" width="480" height="26" as="geometry" />
        </mxCell>
        <mxCell id="5KssfI9YTyOkdyey-keK-10" value="- backgroundColor: unsigned int" style="text;strokeColor=none;fillColor=none;align=left;verticalAlign=top;spacingLeft=4;spacingRight=4;overflow=hidden;rotatable=0;points=[[0,0.5],[1,0.5]];portConstraint=eastwest;" parent="5KssfI9YTyOkdyey-keK-7" vertex="1">
          <mxGeometry y="78" width="480" height="26" as="geometry" />
        </mxCell>
        <mxCell id="5KssfI9YTyOkdyey-keK-11" value="" style="line;strokeWidth=1;fillColor=none;align=left;verticalAlign=middle;spacingTop=-1;spacingLeft=3;spacingRight=3;rotatable=0;labelPosition=right;points=[];portConstraint=eastwest;strokeColor=inherit;" parent="5KssfI9YTyOkdyey-keK-7" vertex="1">
          <mxGeometry y="104" width="480" height="8" as="geometry" />
        </mxCell>
        <mxCell id="5KssfI9YTyOkdyey-keK-12" value="# CharData(character: char, charColor: unsigned int, backgroundColor: unsigned int)" style="text;strokeColor=none;fillColor=none;align=left;verticalAlign=top;spacingLeft=4;spacingRight=4;overflow=hidden;rotatable=0;points=[[0,0.5],[1,0.5]];portConstraint=eastwest;" parent="5KssfI9YTyOkdyey-keK-7" vertex="1">
          <mxGeometry y="112" width="480" height="26" as="geometry" />
        </mxCell>
        <mxCell id="5KssfI9YTyOkdyey-keK-13" value="# CharData(character: char, charColor: unsigned int)" style="text;strokeColor=none;fillColor=none;align=left;verticalAlign=top;spacingLeft=4;spacingRight=4;overflow=hidden;rotatable=0;points=[[0,0.5],[1,0.5]];portConstraint=eastwest;" parent="5KssfI9YTyOkdyey-keK-7" vertex="1">
          <mxGeometry y="138" width="480" height="26" as="geometry" />
        </mxCell>
        <mxCell id="5KssfI9YTyOkdyey-keK-14" value="# CharData(character: char)" style="text;strokeColor=none;fillColor=none;align=left;verticalAlign=top;spacingLeft=4;spacingRight=4;overflow=hidden;rotatable=0;points=[[0,0.5],[1,0.5]];portConstraint=eastwest;" parent="5KssfI9YTyOkdyey-keK-7" vertex="1">
          <mxGeometry y="164" width="480" height="26" as="geometry" />
        </mxCell>
        <mxCell id="5KssfI9YTyOkdyey-keK-15" value="# CharData(backgroundColor: unsigned int)" style="text;strokeColor=none;fillColor=none;align=left;verticalAlign=top;spacingLeft=4;spacingRight=4;overflow=hidden;rotatable=0;points=[[0,0.5],[1,0.5]];portConstraint=eastwest;" parent="5KssfI9YTyOkdyey-keK-7" vertex="1">
          <mxGeometry y="190" width="480" height="26" as="geometry" />
        </mxCell>
        <mxCell id="5KssfI9YTyOkdyey-keK-16" value="+ getCharacter(): char" style="text;strokeColor=none;fillColor=none;align=left;verticalAlign=top;spacingLeft=4;spacingRight=4;overflow=hidden;rotatable=0;points=[[0,0.5],[1,0.5]];portConstraint=eastwest;" parent="5KssfI9YTyOkdyey-keK-7" vertex="1">
          <mxGeometry y="216" width="480" height="26" as="geometry" />
        </mxCell>
        <mxCell id="5KssfI9YTyOkdyey-keK-17" value="+ getCharColor(): unsigned int" style="text;strokeColor=none;fillColor=none;align=left;verticalAlign=top;spacingLeft=4;spacingRight=4;overflow=hidden;rotatable=0;points=[[0,0.5],[1,0.5]];portConstraint=eastwest;" parent="5KssfI9YTyOkdyey-keK-7" vertex="1">
          <mxGeometry y="242" width="480" height="26" as="geometry" />
        </mxCell>
        <mxCell id="5KssfI9YTyOkdyey-keK-18" value="+ getBackgroundColor(): unsigned int" style="text;strokeColor=none;fillColor=none;align=left;verticalAlign=top;spacingLeft=4;spacingRight=4;overflow=hidden;rotatable=0;points=[[0,0.5],[1,0.5]];portConstraint=eastwest;" parent="5KssfI9YTyOkdyey-keK-7" vertex="1">
          <mxGeometry y="268" width="480" height="26" as="geometry" />
        </mxCell>
        <mxCell id="5KssfI9YTyOkdyey-keK-57" value="+ toFullChar(): string" style="text;strokeColor=none;fillColor=none;align=left;verticalAlign=top;spacingLeft=4;spacingRight=4;overflow=hidden;rotatable=0;points=[[0,0.5],[1,0.5]];portConstraint=eastwest;" parent="5KssfI9YTyOkdyey-keK-7" vertex="1">
          <mxGeometry y="294" width="480" height="26" as="geometry" />
        </mxCell>
        <mxCell id="mQGTBcwGhf4JdJvPdo2v-1" value="Enemy" style="swimlane;fontStyle=1;align=center;verticalAlign=top;childLayout=stackLayout;horizontal=1;startSize=26;horizontalStack=0;resizeParent=1;resizeParentMax=0;resizeLast=0;collapsible=1;marginBottom=0;whiteSpace=wrap;html=1;" parent="1" vertex="1">
          <mxGeometry x="1625" y="250" width="500" height="186" as="geometry">
            <mxRectangle x="1200" y="470" width="80" height="30" as="alternateBounds" />
          </mxGeometry>
        </mxCell>
        <mxCell id="gpoH1uDZ4-0kyc8-w-HE-1" value="- health: int&lt;br&gt;" style="text;strokeColor=none;fillColor=none;align=left;verticalAlign=top;spacingLeft=4;spacingRight=4;overflow=hidden;rotatable=0;points=[[0,0.5],[1,0.5]];portConstraint=eastwest;whiteSpace=wrap;html=1;" parent="mQGTBcwGhf4JdJvPdo2v-1" vertex="1">
          <mxGeometry y="26" width="500" height="24" as="geometry" />
        </mxCell>
        <mxCell id="mQGTBcwGhf4JdJvPdo2v-2" value="- damage: unsigned int" style="text;strokeColor=none;fillColor=none;align=left;verticalAlign=top;spacingLeft=4;spacingRight=4;overflow=hidden;rotatable=0;points=[[0,0.5],[1,0.5]];portConstraint=eastwest;whiteSpace=wrap;html=1;" parent="mQGTBcwGhf4JdJvPdo2v-1" vertex="1">
          <mxGeometry y="50" width="500" height="24" as="geometry" />
        </mxCell>
        <mxCell id="mQGTBcwGhf4JdJvPdo2v-3" value="" style="line;strokeWidth=1;fillColor=none;align=left;verticalAlign=middle;spacingTop=-1;spacingLeft=3;spacingRight=3;rotatable=0;labelPosition=right;points=[];portConstraint=eastwest;strokeColor=inherit;" parent="mQGTBcwGhf4JdJvPdo2v-1" vertex="1">
          <mxGeometry y="74" width="500" height="8" as="geometry" />
        </mxCell>
        <mxCell id="if6bvaiVuXyFPU6r5-wz-1" value="+ Enemy(health: int, damage: unsigned int, charData: CharData*, lightCharData: CharData*)" style="text;strokeColor=none;fillColor=none;align=left;verticalAlign=top;spacingLeft=4;spacingRight=4;overflow=hidden;rotatable=0;points=[[0,0.5],[1,0.5]];portConstraint=eastwest;" parent="mQGTBcwGhf4JdJvPdo2v-1" vertex="1">
          <mxGeometry y="82" width="500" height="26" as="geometry" />
        </mxCell>
        <mxCell id="if6bvaiVuXyFPU6r5-wz-2" value="+ getHealth(): int" style="text;strokeColor=none;fillColor=none;align=left;verticalAlign=top;spacingLeft=4;spacingRight=4;overflow=hidden;rotatable=0;points=[[0,0.5],[1,0.5]];portConstraint=eastwest;" parent="mQGTBcwGhf4JdJvPdo2v-1" vertex="1">
          <mxGeometry y="108" width="500" height="26" as="geometry" />
        </mxCell>
        <mxCell id="if6bvaiVuXyFPU6r5-wz-3" value="+ getDamage(): unsigned int" style="text;strokeColor=none;fillColor=none;align=left;verticalAlign=top;spacingLeft=4;spacingRight=4;overflow=hidden;rotatable=0;points=[[0,0.5],[1,0.5]];portConstraint=eastwest;" parent="mQGTBcwGhf4JdJvPdo2v-1" vertex="1">
          <mxGeometry y="134" width="500" height="26" as="geometry" />
        </mxCell>
        <mxCell id="if6bvaiVuXyFPU6r5-wz-4" value="+ calculateHealth(incomingDamage: unsigned int): void" style="text;strokeColor=none;fillColor=none;align=left;verticalAlign=top;spacingLeft=4;spacingRight=4;overflow=hidden;rotatable=0;points=[[0,0.5],[1,0.5]];portConstraint=eastwest;" parent="mQGTBcwGhf4JdJvPdo2v-1" vertex="1">
          <mxGeometry y="160" width="500" height="26" as="geometry" />
        </mxCell>
        <mxCell id="mQGTBcwGhf4JdJvPdo2v-10" style="edgeStyle=orthogonalEdgeStyle;rounded=0;orthogonalLoop=1;jettySize=auto;html=1;startArrow=diamond;startFill=1;endArrow=classic;endFill=1;" parent="1" source="1YELGyrMm5p_oQ3cGRLv-40" target="SSqiaNLJgeLojGb0BakC-35" edge="1">
          <mxGeometry relative="1" as="geometry">
            <Array as="points">
              <mxPoint x="640" y="677" />
              <mxPoint x="640" y="570" />
              <mxPoint x="787" y="570" />
            </Array>
            <mxPoint x="250" y="609" as="sourcePoint" />
            <mxPoint x="800" y="570" as="targetPoint" />
          </mxGeometry>
        </mxCell>
        <mxCell id="mQGTBcwGhf4JdJvPdo2v-11" value="consists of" style="edgeLabel;html=1;align=center;verticalAlign=middle;resizable=0;points=[];" parent="mQGTBcwGhf4JdJvPdo2v-10" vertex="1" connectable="0">
          <mxGeometry x="0.5262" y="-2" relative="1" as="geometry">
            <mxPoint x="-66" y="-2" as="offset" />
          </mxGeometry>
        </mxCell>
        <mxCell id="mQGTBcwGhf4JdJvPdo2v-12" value="1...4" style="edgeLabel;html=1;align=center;verticalAlign=middle;resizable=0;points=[];" parent="mQGTBcwGhf4JdJvPdo2v-10" vertex="1" connectable="0">
          <mxGeometry x="0.0992" y="1" relative="1" as="geometry">
            <mxPoint x="-111" y="561" as="offset" />
          </mxGeometry>
        </mxCell>
        <mxCell id="mQGTBcwGhf4JdJvPdo2v-13" value="1" style="edgeLabel;html=1;align=center;verticalAlign=middle;resizable=0;points=[];" parent="mQGTBcwGhf4JdJvPdo2v-10" vertex="1" connectable="0">
          <mxGeometry x="-0.7762" y="2" relative="1" as="geometry">
            <mxPoint x="-26" y="-12" as="offset" />
          </mxGeometry>
        </mxCell>
        <mxCell id="b6OtjgtKvS2dvmpzejvt-1" value="0...N" style="edgeLabel;html=1;align=center;verticalAlign=middle;resizable=0;points=[];" parent="mQGTBcwGhf4JdJvPdo2v-10" vertex="1" connectable="0">
          <mxGeometry x="0.6706" y="2" relative="1" as="geometry">
            <mxPoint x="47" y="16" as="offset" />
          </mxGeometry>
        </mxCell>
        <mxCell id="gpoH1uDZ4-0kyc8-w-HE-8" style="edgeStyle=orthogonalEdgeStyle;rounded=0;orthogonalLoop=1;jettySize=auto;html=1;exitX=0.001;exitY=0.504;exitDx=0;exitDy=0;exitPerimeter=0;endArrow=block;endFill=0;" parent="1" source="mQGTBcwGhf4JdJvPdo2v-3" edge="1">
          <mxGeometry relative="1" as="geometry">
            <mxPoint x="1600" y="405" as="sourcePoint" />
            <mxPoint x="900" y="600" as="targetPoint" />
            <Array as="points">
              <mxPoint x="1520" y="328" />
              <mxPoint x="1520" y="480" />
              <mxPoint x="900" y="480" />
            </Array>
          </mxGeometry>
        </mxCell>
        <mxCell id="if6bvaiVuXyFPU6r5-wz-5" value="PlayerAttack" style="swimlane;fontStyle=1;align=center;verticalAlign=top;childLayout=stackLayout;horizontal=1;startSize=26;horizontalStack=0;resizeParent=1;resizeParentMax=0;resizeLast=0;collapsible=1;marginBottom=0;" parent="1" vertex="1">
          <mxGeometry x="400" y="1150" width="290" height="112" as="geometry" />
        </mxCell>
        <mxCell id="if6bvaiVuXyFPU6r5-wz-9" value="- name: string" style="text;strokeColor=none;fillColor=none;align=left;verticalAlign=top;spacingLeft=4;spacingRight=4;overflow=hidden;rotatable=0;points=[[0,0.5],[1,0.5]];portConstraint=eastwest;" parent="if6bvaiVuXyFPU6r5-wz-5" vertex="1">
          <mxGeometry y="26" width="290" height="26" as="geometry" />
        </mxCell>
        <mxCell id="if6bvaiVuXyFPU6r5-wz-14" value="- damage: unsigned int" style="text;strokeColor=none;fillColor=none;align=left;verticalAlign=top;spacingLeft=4;spacingRight=4;overflow=hidden;rotatable=0;points=[[0,0.5],[1,0.5]];portConstraint=eastwest;" parent="if6bvaiVuXyFPU6r5-wz-5" vertex="1">
          <mxGeometry y="52" width="290" height="26" as="geometry" />
        </mxCell>
        <mxCell id="if6bvaiVuXyFPU6r5-wz-10" value="" style="line;strokeWidth=1;fillColor=none;align=left;verticalAlign=middle;spacingTop=-1;spacingLeft=3;spacingRight=3;rotatable=0;labelPosition=right;points=[];portConstraint=eastwest;strokeColor=inherit;" parent="if6bvaiVuXyFPU6r5-wz-5" vertex="1">
          <mxGeometry y="78" width="290" height="8" as="geometry" />
        </mxCell>
        <mxCell id="if6bvaiVuXyFPU6r5-wz-11" value="+ PlayerAttack(name: string, damage: unsigned int)" style="text;strokeColor=none;fillColor=none;align=left;verticalAlign=top;spacingLeft=4;spacingRight=4;overflow=hidden;rotatable=0;points=[[0,0.5],[1,0.5]];portConstraint=eastwest;" parent="if6bvaiVuXyFPU6r5-wz-5" vertex="1">
          <mxGeometry y="86" width="290" height="26" as="geometry" />
        </mxCell>
        <mxCell id="if6bvaiVuXyFPU6r5-wz-18" style="edgeStyle=orthogonalEdgeStyle;rounded=0;orthogonalLoop=1;jettySize=auto;html=1;endArrow=diamond;endFill=0;startArrow=classic;startFill=1;entryX=1;entryY=0.5;entryDx=0;entryDy=0;" parent="1" source="if6bvaiVuXyFPU6r5-wz-5" target="5KssfI9YTyOkdyey-keK-29" edge="1">
          <mxGeometry relative="1" as="geometry">
            <mxPoint x="524" y="1121" as="sourcePoint" />
            <mxPoint x="460" y="960" as="targetPoint" />
          </mxGeometry>
        </mxCell>
        <mxCell id="if6bvaiVuXyFPU6r5-wz-20" value="contains" style="edgeLabel;html=1;align=center;verticalAlign=middle;resizable=0;points=[];" parent="1" vertex="1" connectable="0">
          <mxGeometry x="569.9999999999998" y="1059" as="geometry">
            <mxPoint x="-27" y="-4" as="offset" />
          </mxGeometry>
        </mxCell>
        <mxCell id="if6bvaiVuXyFPU6r5-wz-21" value="1" style="edgeLabel;html=1;align=center;verticalAlign=middle;resizable=0;points=[];" parent="1" vertex="1" connectable="0">
          <mxGeometry x="669.8749999999998" y="980" as="geometry" />
        </mxCell>
        <mxCell id="if6bvaiVuXyFPU6r5-wz-23" value="Item" style="swimlane;fontStyle=3;align=center;verticalAlign=top;childLayout=stackLayout;horizontal=1;startSize=26;horizontalStack=0;resizeParent=1;resizeParentMax=0;resizeLast=0;collapsible=1;marginBottom=0;whiteSpace=wrap;html=1;" parent="1" vertex="1">
          <mxGeometry x="1685" y="700" width="380" height="110" as="geometry">
            <mxRectangle x="1200" y="470" width="80" height="30" as="alternateBounds" />
          </mxGeometry>
        </mxCell>
        <mxCell id="if6bvaiVuXyFPU6r5-wz-24" value="- name: string" style="text;strokeColor=none;fillColor=none;align=left;verticalAlign=top;spacingLeft=4;spacingRight=4;overflow=hidden;rotatable=0;points=[[0,0.5],[1,0.5]];portConstraint=eastwest;whiteSpace=wrap;html=1;" parent="if6bvaiVuXyFPU6r5-wz-23" vertex="1">
          <mxGeometry y="26" width="380" height="24" as="geometry" />
        </mxCell>
        <mxCell id="if6bvaiVuXyFPU6r5-wz-28" value="" style="line;strokeWidth=1;fillColor=none;align=left;verticalAlign=middle;spacingTop=-1;spacingLeft=3;spacingRight=3;rotatable=0;labelPosition=right;points=[];portConstraint=eastwest;strokeColor=inherit;" parent="if6bvaiVuXyFPU6r5-wz-23" vertex="1">
          <mxGeometry y="50" width="380" height="8" as="geometry" />
        </mxCell>
        <mxCell id="if6bvaiVuXyFPU6r5-wz-29" value="# Item(name: string, charData: CharData*, lightCharData: CharData*)" style="text;strokeColor=none;fillColor=none;align=left;verticalAlign=top;spacingLeft=4;spacingRight=4;overflow=hidden;rotatable=0;points=[[0,0.5],[1,0.5]];portConstraint=eastwest;" parent="if6bvaiVuXyFPU6r5-wz-23" vertex="1">
          <mxGeometry y="58" width="380" height="26" as="geometry" />
        </mxCell>
        <mxCell id="if6bvaiVuXyFPU6r5-wz-33" value="+ setName(newName: string)" style="text;strokeColor=none;fillColor=none;align=left;verticalAlign=top;spacingLeft=4;spacingRight=4;overflow=hidden;rotatable=0;points=[[0,0.5],[1,0.5]];portConstraint=eastwest;" parent="if6bvaiVuXyFPU6r5-wz-23" vertex="1">
          <mxGeometry y="84" width="380" height="26" as="geometry" />
        </mxCell>
        <mxCell id="if6bvaiVuXyFPU6r5-wz-34" style="edgeStyle=orthogonalEdgeStyle;rounded=0;orthogonalLoop=1;jettySize=auto;html=1;entryX=0.5;entryY=0;entryDx=0;entryDy=0;endArrow=block;endFill=0;" parent="1" target="SSqiaNLJgeLojGb0BakC-35" edge="1">
          <mxGeometry relative="1" as="geometry">
            <mxPoint x="1685" y="754" as="sourcePoint" />
            <Array as="points">
              <mxPoint x="1403" y="755" />
              <mxPoint x="1403" y="570" />
              <mxPoint x="900" y="570" />
            </Array>
          </mxGeometry>
        </mxCell>
        <mxCell id="if6bvaiVuXyFPU6r5-wz-35" value="&lt;span style=&quot;font-style: normal;&quot;&gt;Heal&lt;/span&gt;" style="swimlane;fontStyle=3;align=center;verticalAlign=top;childLayout=stackLayout;horizontal=1;startSize=26;horizontalStack=0;resizeParent=1;resizeParentMax=0;resizeLast=0;collapsible=1;marginBottom=0;whiteSpace=wrap;html=1;" parent="1" vertex="1">
          <mxGeometry x="1615" y="860" width="520" height="110" as="geometry">
            <mxRectangle x="1200" y="470" width="80" height="30" as="alternateBounds" />
          </mxGeometry>
        </mxCell>
        <mxCell id="if6bvaiVuXyFPU6r5-wz-36" value="- healValue: unsigned int" style="text;strokeColor=none;fillColor=none;align=left;verticalAlign=top;spacingLeft=4;spacingRight=4;overflow=hidden;rotatable=0;points=[[0,0.5],[1,0.5]];portConstraint=eastwest;whiteSpace=wrap;html=1;" parent="if6bvaiVuXyFPU6r5-wz-35" vertex="1">
          <mxGeometry y="26" width="520" height="24" as="geometry" />
        </mxCell>
        <mxCell id="if6bvaiVuXyFPU6r5-wz-37" value="" style="line;strokeWidth=1;fillColor=none;align=left;verticalAlign=middle;spacingTop=-1;spacingLeft=3;spacingRight=3;rotatable=0;labelPosition=right;points=[];portConstraint=eastwest;strokeColor=inherit;" parent="if6bvaiVuXyFPU6r5-wz-35" vertex="1">
          <mxGeometry y="50" width="520" height="8" as="geometry" />
        </mxCell>
        <mxCell id="if6bvaiVuXyFPU6r5-wz-40" value="+ Heal(name: string, healValue: unsigned int, charData: CharData*, lightCharData: CharData*)" style="text;strokeColor=none;fillColor=none;align=left;verticalAlign=top;spacingLeft=4;spacingRight=4;overflow=hidden;rotatable=0;points=[[0,0.5],[1,0.5]];portConstraint=eastwest;" parent="if6bvaiVuXyFPU6r5-wz-35" vertex="1">
          <mxGeometry y="58" width="520" height="26" as="geometry" />
        </mxCell>
        <mxCell id="if6bvaiVuXyFPU6r5-wz-38" value="+ getHealValue(): unsigned int" style="text;strokeColor=none;fillColor=none;align=left;verticalAlign=top;spacingLeft=4;spacingRight=4;overflow=hidden;rotatable=0;points=[[0,0.5],[1,0.5]];portConstraint=eastwest;" parent="if6bvaiVuXyFPU6r5-wz-35" vertex="1">
          <mxGeometry y="84" width="520" height="26" as="geometry" />
        </mxCell>
        <mxCell id="if6bvaiVuXyFPU6r5-wz-43" style="edgeStyle=orthogonalEdgeStyle;rounded=0;orthogonalLoop=1;jettySize=auto;html=1;entryX=0.5;entryY=1;entryDx=0;entryDy=0;entryPerimeter=0;endArrow=block;endFill=0;" parent="1" source="if6bvaiVuXyFPU6r5-wz-35" target="if6bvaiVuXyFPU6r5-wz-33" edge="1">
          <mxGeometry relative="1" as="geometry" />
        </mxCell>
        <mxCell id="if6bvaiVuXyFPU6r5-wz-50" style="edgeStyle=orthogonalEdgeStyle;rounded=0;orthogonalLoop=1;jettySize=auto;html=1;endArrow=block;endFill=0;" parent="1" edge="1">
          <mxGeometry relative="1" as="geometry">
            <mxPoint x="2140" y="754" as="sourcePoint" />
            <mxPoint x="2065" y="754" as="targetPoint" />
          </mxGeometry>
        </mxCell>
        <mxCell id="if6bvaiVuXyFPU6r5-wz-44" value="&lt;span style=&quot;font-style: normal;&quot;&gt;Weapon&lt;/span&gt;" style="swimlane;fontStyle=3;align=center;verticalAlign=top;childLayout=stackLayout;horizontal=1;startSize=26;horizontalStack=0;resizeParent=1;resizeParentMax=0;resizeLast=0;collapsible=1;marginBottom=0;whiteSpace=wrap;html=1;" parent="1" vertex="1">
          <mxGeometry x="2140" y="700" width="560" height="110" as="geometry">
            <mxRectangle x="1200" y="470" width="80" height="30" as="alternateBounds" />
          </mxGeometry>
        </mxCell>
        <mxCell id="if6bvaiVuXyFPU6r5-wz-45" value="- damageValue: unsigned int" style="text;strokeColor=none;fillColor=none;align=left;verticalAlign=top;spacingLeft=4;spacingRight=4;overflow=hidden;rotatable=0;points=[[0,0.5],[1,0.5]];portConstraint=eastwest;whiteSpace=wrap;html=1;" parent="if6bvaiVuXyFPU6r5-wz-44" vertex="1">
          <mxGeometry y="26" width="560" height="24" as="geometry" />
        </mxCell>
        <mxCell id="if6bvaiVuXyFPU6r5-wz-46" value="" style="line;strokeWidth=1;fillColor=none;align=left;verticalAlign=middle;spacingTop=-1;spacingLeft=3;spacingRight=3;rotatable=0;labelPosition=right;points=[];portConstraint=eastwest;strokeColor=inherit;" parent="if6bvaiVuXyFPU6r5-wz-44" vertex="1">
          <mxGeometry y="50" width="560" height="8" as="geometry" />
        </mxCell>
        <mxCell id="if6bvaiVuXyFPU6r5-wz-47" value="+ Weapon(name: string, damageValue: unsigned int, charData: CharData*, lightCharData: CharData*)" style="text;strokeColor=none;fillColor=none;align=left;verticalAlign=top;spacingLeft=4;spacingRight=4;overflow=hidden;rotatable=0;points=[[0,0.5],[1,0.5]];portConstraint=eastwest;" parent="if6bvaiVuXyFPU6r5-wz-44" vertex="1">
          <mxGeometry y="58" width="560" height="26" as="geometry" />
        </mxCell>
        <mxCell id="if6bvaiVuXyFPU6r5-wz-48" value="+ getDamageValue(): unsigned int" style="text;strokeColor=none;fillColor=none;align=left;verticalAlign=top;spacingLeft=4;spacingRight=4;overflow=hidden;rotatable=0;points=[[0,0.5],[1,0.5]];portConstraint=eastwest;" parent="if6bvaiVuXyFPU6r5-wz-44" vertex="1">
          <mxGeometry y="84" width="560" height="26" as="geometry" />
        </mxCell>
        <mxCell id="WxDxbygKdJgTz162LdG1-1" value="Torch" style="swimlane;fontStyle=1;align=center;verticalAlign=top;childLayout=stackLayout;horizontal=1;startSize=26;horizontalStack=0;resizeParent=1;resizeParentMax=0;resizeLast=0;collapsible=1;marginBottom=0;whiteSpace=wrap;html=1;" parent="1" vertex="1">
          <mxGeometry x="1625" y="515" width="500" height="110" as="geometry">
            <mxRectangle x="1200" y="470" width="80" height="30" as="alternateBounds" />
          </mxGeometry>
        </mxCell>
        <mxCell id="WxDxbygKdJgTz162LdG1-2" value="- isLightened: bool" style="text;strokeColor=none;fillColor=none;align=left;verticalAlign=top;spacingLeft=4;spacingRight=4;overflow=hidden;rotatable=0;points=[[0,0.5],[1,0.5]];portConstraint=eastwest;whiteSpace=wrap;html=1;" parent="WxDxbygKdJgTz162LdG1-1" vertex="1">
          <mxGeometry y="26" width="500" height="24" as="geometry" />
        </mxCell>
        <mxCell id="WxDxbygKdJgTz162LdG1-4" value="" style="line;strokeWidth=1;fillColor=none;align=left;verticalAlign=middle;spacingTop=-1;spacingLeft=3;spacingRight=3;rotatable=0;labelPosition=right;points=[];portConstraint=eastwest;strokeColor=inherit;" parent="WxDxbygKdJgTz162LdG1-1" vertex="1">
          <mxGeometry y="50" width="500" height="8" as="geometry" />
        </mxCell>
        <mxCell id="WxDxbygKdJgTz162LdG1-5" value="+ Torch(charData: CharData*, lightCharData: CharData*)" style="text;strokeColor=none;fillColor=none;align=left;verticalAlign=top;spacingLeft=4;spacingRight=4;overflow=hidden;rotatable=0;points=[[0,0.5],[1,0.5]];portConstraint=eastwest;" parent="WxDxbygKdJgTz162LdG1-1" vertex="1">
          <mxGeometry y="58" width="500" height="26" as="geometry" />
        </mxCell>
        <mxCell id="WxDxbygKdJgTz162LdG1-6" value="+ lightUp(): void" style="text;strokeColor=none;fillColor=none;align=left;verticalAlign=top;spacingLeft=4;spacingRight=4;overflow=hidden;rotatable=0;points=[[0,0.5],[1,0.5]];portConstraint=eastwest;" parent="WxDxbygKdJgTz162LdG1-1" vertex="1">
          <mxGeometry y="84" width="500" height="26" as="geometry" />
        </mxCell>
        <mxCell id="KZBM8AV8mmL1xDu14tVv-2" style="edgeStyle=orthogonalEdgeStyle;rounded=0;orthogonalLoop=1;jettySize=auto;html=1;entryX=0.5;entryY=0;entryDx=0;entryDy=0;endArrow=block;endFill=0;" parent="1" source="WxDxbygKdJgTz162LdG1-1" target="SSqiaNLJgeLojGb0BakC-35" edge="1">
          <mxGeometry relative="1" as="geometry">
            <mxPoint x="1625" y="570" as="sourcePoint" />
            <Array as="points">
              <mxPoint x="900" y="569" />
            </Array>
          </mxGeometry>
        </mxCell>
        <mxCell id="KZBM8AV8mmL1xDu14tVv-3" value="Inventory" style="swimlane;fontStyle=1;align=center;verticalAlign=top;childLayout=stackLayout;horizontal=1;startSize=26;horizontalStack=0;resizeParent=1;resizeParentMax=0;resizeLast=0;collapsible=1;marginBottom=0;" parent="1" vertex="1">
          <mxGeometry x="-110" y="1200" width="290" height="190" as="geometry" />
        </mxCell>
        <mxCell id="wvMle8vVvj-WzK0JHfS2-1" value="- weapons: vector&lt;Weapon*&gt;" style="text;strokeColor=none;fillColor=none;align=left;verticalAlign=top;spacingLeft=4;spacingRight=4;overflow=hidden;rotatable=0;points=[[0,0.5],[1,0.5]];portConstraint=eastwest;fontStyle=0" parent="KZBM8AV8mmL1xDu14tVv-3" vertex="1">
          <mxGeometry y="26" width="290" height="26" as="geometry" />
        </mxCell>
        <mxCell id="KZBM8AV8mmL1xDu14tVv-4" value="- heals: vector&lt;Heal*&gt;" style="text;strokeColor=none;fillColor=none;align=left;verticalAlign=top;spacingLeft=4;spacingRight=4;overflow=hidden;rotatable=0;points=[[0,0.5],[1,0.5]];portConstraint=eastwest;fontStyle=0" parent="KZBM8AV8mmL1xDu14tVv-3" vertex="1">
          <mxGeometry y="52" width="290" height="26" as="geometry" />
        </mxCell>
        <mxCell id="KZBM8AV8mmL1xDu14tVv-6" value="" style="line;strokeWidth=1;fillColor=none;align=left;verticalAlign=middle;spacingTop=-1;spacingLeft=3;spacingRight=3;rotatable=0;labelPosition=right;points=[];portConstraint=eastwest;strokeColor=inherit;" parent="KZBM8AV8mmL1xDu14tVv-3" vertex="1">
          <mxGeometry y="78" width="290" height="8" as="geometry" />
        </mxCell>
        <mxCell id="wvMle8vVvj-WzK0JHfS2-5" value="+ addWeapon(weapon: Weapon*): void" style="text;strokeColor=none;fillColor=none;align=left;verticalAlign=top;spacingLeft=4;spacingRight=4;overflow=hidden;rotatable=0;points=[[0,0.5],[1,0.5]];portConstraint=eastwest;fontStyle=0" parent="KZBM8AV8mmL1xDu14tVv-3" vertex="1">
          <mxGeometry y="86" width="290" height="26" as="geometry" />
        </mxCell>
        <mxCell id="wvMle8vVvj-WzK0JHfS2-2" value="+ addHeal(heal: Heal*): void" style="text;strokeColor=none;fillColor=none;align=left;verticalAlign=top;spacingLeft=4;spacingRight=4;overflow=hidden;rotatable=0;points=[[0,0.5],[1,0.5]];portConstraint=eastwest;fontStyle=0" parent="KZBM8AV8mmL1xDu14tVv-3" vertex="1">
          <mxGeometry y="112" width="290" height="26" as="geometry" />
        </mxCell>
        <mxCell id="wvMle8vVvj-WzK0JHfS2-4" value="+ deleteHeal(index: unsigned int): void" style="text;strokeColor=none;fillColor=none;align=left;verticalAlign=top;spacingLeft=4;spacingRight=4;overflow=hidden;rotatable=0;points=[[0,0.5],[1,0.5]];portConstraint=eastwest;fontStyle=0" parent="KZBM8AV8mmL1xDu14tVv-3" vertex="1">
          <mxGeometry y="138" width="290" height="26" as="geometry" />
        </mxCell>
        <mxCell id="wvMle8vVvj-WzK0JHfS2-6" value="+ deleteWeapon(index: unsigned int): void" style="text;strokeColor=none;fillColor=none;align=left;verticalAlign=top;spacingLeft=4;spacingRight=4;overflow=hidden;rotatable=0;points=[[0,0.5],[1,0.5]];portConstraint=eastwest;fontStyle=0" parent="KZBM8AV8mmL1xDu14tVv-3" vertex="1">
          <mxGeometry y="164" width="290" height="26" as="geometry" />
        </mxCell>
        <mxCell id="d02Wg7IjQV8Bg_PJh1dA-1" value="CharColorTarget" style="swimlane;fontStyle=0;childLayout=stackLayout;horizontal=1;startSize=26;fillColor=none;horizontalStack=0;resizeParent=1;resizeParentMax=0;resizeLast=0;collapsible=1;marginBottom=0;" parent="1" vertex="1">
          <mxGeometry x="1351" y="-331" width="140" height="78" as="geometry" />
        </mxCell>
        <mxCell id="d02Wg7IjQV8Bg_PJh1dA-2" value="BACKGROUND" style="text;strokeColor=none;fillColor=none;align=left;verticalAlign=top;spacingLeft=4;spacingRight=4;overflow=hidden;rotatable=0;points=[[0,0.5],[1,0.5]];portConstraint=eastwest;" parent="d02Wg7IjQV8Bg_PJh1dA-1" vertex="1">
          <mxGeometry y="26" width="140" height="26" as="geometry" />
        </mxCell>
        <mxCell id="d02Wg7IjQV8Bg_PJh1dA-3" value="FOREGROUND" style="text;strokeColor=none;fillColor=none;align=left;verticalAlign=top;spacingLeft=4;spacingRight=4;overflow=hidden;rotatable=0;points=[[0,0.5],[1,0.5]];portConstraint=eastwest;" parent="d02Wg7IjQV8Bg_PJh1dA-1" vertex="1">
          <mxGeometry y="52" width="140" height="26" as="geometry" />
        </mxCell>
        <mxCell id="d02Wg7IjQV8Bg_PJh1dA-7" style="edgeStyle=orthogonalEdgeStyle;rounded=0;orthogonalLoop=1;jettySize=auto;html=1;" parent="1" source="SYfL99fkJGa10WcQz1MI-13" target="d02Wg7IjQV8Bg_PJh1dA-1" edge="1">
          <mxGeometry relative="1" as="geometry" />
        </mxCell>
        <mxCell id="d02Wg7IjQV8Bg_PJh1dA-8" value="ConsoleFormatType" style="swimlane;fontStyle=0;childLayout=stackLayout;horizontal=1;startSize=26;fillColor=none;horizontalStack=0;resizeParent=1;resizeParentMax=0;resizeLast=0;collapsible=1;marginBottom=0;" parent="1" vertex="1">
          <mxGeometry x="1082" y="-410" width="140" height="182" as="geometry" />
        </mxCell>
        <mxCell id="d02Wg7IjQV8Bg_PJh1dA-9" value="RESET" style="text;strokeColor=none;fillColor=none;align=left;verticalAlign=top;spacingLeft=4;spacingRight=4;overflow=hidden;rotatable=0;points=[[0,0.5],[1,0.5]];portConstraint=eastwest;" parent="d02Wg7IjQV8Bg_PJh1dA-8" vertex="1">
          <mxGeometry y="26" width="140" height="26" as="geometry" />
        </mxCell>
        <mxCell id="d02Wg7IjQV8Bg_PJh1dA-10" value="ITALIC" style="text;strokeColor=none;fillColor=none;align=left;verticalAlign=top;spacingLeft=4;spacingRight=4;overflow=hidden;rotatable=0;points=[[0,0.5],[1,0.5]];portConstraint=eastwest;" parent="d02Wg7IjQV8Bg_PJh1dA-8" vertex="1">
          <mxGeometry y="52" width="140" height="26" as="geometry" />
        </mxCell>
        <mxCell id="d02Wg7IjQV8Bg_PJh1dA-11" value="BLINKING" style="text;strokeColor=none;fillColor=none;align=left;verticalAlign=top;spacingLeft=4;spacingRight=4;overflow=hidden;rotatable=0;points=[[0,0.5],[1,0.5]];portConstraint=eastwest;" parent="d02Wg7IjQV8Bg_PJh1dA-8" vertex="1">
          <mxGeometry y="78" width="140" height="26" as="geometry" />
        </mxCell>
        <mxCell id="d02Wg7IjQV8Bg_PJh1dA-14" value="INVERSED" style="text;strokeColor=none;fillColor=none;align=left;verticalAlign=top;spacingLeft=4;spacingRight=4;overflow=hidden;rotatable=0;points=[[0,0.5],[1,0.5]];portConstraint=eastwest;" parent="d02Wg7IjQV8Bg_PJh1dA-8" vertex="1">
          <mxGeometry y="104" width="140" height="26" as="geometry" />
        </mxCell>
        <mxCell id="d02Wg7IjQV8Bg_PJh1dA-15" value="UNDERLINE" style="text;strokeColor=none;fillColor=none;align=left;verticalAlign=top;spacingLeft=4;spacingRight=4;overflow=hidden;rotatable=0;points=[[0,0.5],[1,0.5]];portConstraint=eastwest;" parent="d02Wg7IjQV8Bg_PJh1dA-8" vertex="1">
          <mxGeometry y="130" width="140" height="26" as="geometry" />
        </mxCell>
        <mxCell id="d02Wg7IjQV8Bg_PJh1dA-16" value="STRIKETHROUGH" style="text;strokeColor=none;fillColor=none;align=left;verticalAlign=top;spacingLeft=4;spacingRight=4;overflow=hidden;rotatable=0;points=[[0,0.5],[1,0.5]];portConstraint=eastwest;" parent="d02Wg7IjQV8Bg_PJh1dA-8" vertex="1">
          <mxGeometry y="156" width="140" height="26" as="geometry" />
        </mxCell>
        <mxCell id="wvMle8vVvj-WzK0JHfS2-11" style="edgeStyle=orthogonalEdgeStyle;rounded=0;orthogonalLoop=1;jettySize=auto;html=1;startArrow=diamond;startFill=1;" parent="1" source="if6bvaiVuXyFPU6r5-wz-16" target="KZBM8AV8mmL1xDu14tVv-3" edge="1">
          <mxGeometry relative="1" as="geometry" />
        </mxCell>
        <mxCell id="wvMle8vVvj-WzK0JHfS2-14" value="contains" style="edgeLabel;html=1;align=center;verticalAlign=middle;resizable=0;points=[];" parent="wvMle8vVvj-WzK0JHfS2-11" vertex="1" connectable="0">
          <mxGeometry x="0.3956" y="-2" relative="1" as="geometry">
            <mxPoint x="4" y="1" as="offset" />
          </mxGeometry>
        </mxCell>
        <mxCell id="wvMle8vVvj-WzK0JHfS2-12" value="1" style="edgeLabel;html=1;align=center;verticalAlign=middle;resizable=0;points=[];" parent="1" vertex="1" connectable="0">
          <mxGeometry x="485.99999999999983" y="957" as="geometry">
            <mxPoint x="-332" y="17" as="offset" />
          </mxGeometry>
        </mxCell>
        <mxCell id="wvMle8vVvj-WzK0JHfS2-13" value="1" style="edgeLabel;html=1;align=center;verticalAlign=middle;resizable=0;points=[];" parent="1" vertex="1" connectable="0">
          <mxGeometry x="379.99999999999983" y="1160" as="geometry">
            <mxPoint x="-332" y="17" as="offset" />
          </mxGeometry>
        </mxCell>
        <mxCell id="o90K8o9Egq8ZHoy3wgxz-22" style="edgeStyle=orthogonalEdgeStyle;rounded=0;orthogonalLoop=1;jettySize=auto;html=1;endArrow=block;endFill=0;" parent="1" source="o90K8o9Egq8ZHoy3wgxz-1" target="o90K8o9Egq8ZHoy3wgxz-12" edge="1">
          <mxGeometry relative="1" as="geometry" />
        </mxCell>
        <mxCell id="o90K8o9Egq8ZHoy3wgxz-1" value="InventoryWindow" style="swimlane;fontStyle=1;align=center;verticalAlign=top;childLayout=stackLayout;horizontal=1;startSize=26;horizontalStack=0;resizeParent=1;resizeParentMax=0;resizeLast=0;collapsible=1;marginBottom=0;whiteSpace=wrap;html=1;" parent="1" vertex="1">
          <mxGeometry x="-690" y="160" width="270" height="86" as="geometry" />
        </mxCell>
        <mxCell id="o90K8o9Egq8ZHoy3wgxz-2" value="- playerInventory: Inventory*" style="text;strokeColor=none;fillColor=none;align=left;verticalAlign=top;spacingLeft=4;spacingRight=4;overflow=hidden;rotatable=0;points=[[0,0.5],[1,0.5]];portConstraint=eastwest;whiteSpace=wrap;html=1;" parent="o90K8o9Egq8ZHoy3wgxz-1" vertex="1">
          <mxGeometry y="26" width="270" height="26" as="geometry" />
        </mxCell>
        <mxCell id="o90K8o9Egq8ZHoy3wgxz-3" value="" style="line;strokeWidth=1;fillColor=none;align=left;verticalAlign=middle;spacingTop=-1;spacingLeft=3;spacingRight=3;rotatable=0;labelPosition=right;points=[];portConstraint=eastwest;strokeColor=inherit;" parent="o90K8o9Egq8ZHoy3wgxz-1" vertex="1">
          <mxGeometry y="52" width="270" height="8" as="geometry" />
        </mxCell>
        <mxCell id="o90K8o9Egq8ZHoy3wgxz-4" value="+ InventoryWindow(playerInventory: Inventory*)" style="text;strokeColor=none;fillColor=none;align=left;verticalAlign=top;spacingLeft=4;spacingRight=4;overflow=hidden;rotatable=0;points=[[0,0.5],[1,0.5]];portConstraint=eastwest;whiteSpace=wrap;html=1;" parent="o90K8o9Egq8ZHoy3wgxz-1" vertex="1">
          <mxGeometry y="60" width="270" height="26" as="geometry" />
        </mxCell>
        <mxCell id="o90K8o9Egq8ZHoy3wgxz-20" style="edgeStyle=orthogonalEdgeStyle;rounded=0;orthogonalLoop=1;jettySize=auto;html=1;endArrow=block;endFill=0;" parent="1" source="o90K8o9Egq8ZHoy3wgxz-12" target="SSqiaNLJgeLojGb0BakC-3" edge="1">
          <mxGeometry relative="1" as="geometry">
            <Array as="points">
              <mxPoint x="109" y="50" />
            </Array>
          </mxGeometry>
        </mxCell>
        <mxCell id="o90K8o9Egq8ZHoy3wgxz-12" value="InGameWindow" style="swimlane;fontStyle=3;align=center;verticalAlign=top;childLayout=stackLayout;horizontal=1;startSize=26;horizontalStack=0;resizeParent=1;resizeParentMax=0;resizeLast=0;collapsible=1;marginBottom=0;whiteSpace=wrap;html=1;" parent="1" vertex="1">
          <mxGeometry x="-470" width="190" height="112" as="geometry" />
        </mxCell>
        <mxCell id="o90K8o9Egq8ZHoy3wgxz-13" value="# game: Game*" style="text;strokeColor=none;fillColor=none;align=left;verticalAlign=top;spacingLeft=4;spacingRight=4;overflow=hidden;rotatable=0;points=[[0,0.5],[1,0.5]];portConstraint=eastwest;whiteSpace=wrap;html=1;" parent="o90K8o9Egq8ZHoy3wgxz-12" vertex="1">
          <mxGeometry y="26" width="190" height="26" as="geometry" />
        </mxCell>
        <mxCell id="o90K8o9Egq8ZHoy3wgxz-14" value="" style="line;strokeWidth=1;fillColor=none;align=left;verticalAlign=middle;spacingTop=-1;spacingLeft=3;spacingRight=3;rotatable=0;labelPosition=right;points=[];portConstraint=eastwest;strokeColor=inherit;" parent="o90K8o9Egq8ZHoy3wgxz-12" vertex="1">
          <mxGeometry y="52" width="190" height="8" as="geometry" />
        </mxCell>
        <mxCell id="o90K8o9Egq8ZHoy3wgxz-15" value="# InGameWindow(game: Game*)" style="text;strokeColor=none;fillColor=none;align=left;verticalAlign=top;spacingLeft=4;spacingRight=4;overflow=hidden;rotatable=0;points=[[0,0.5],[1,0.5]];portConstraint=eastwest;whiteSpace=wrap;html=1;" parent="o90K8o9Egq8ZHoy3wgxz-12" vertex="1">
          <mxGeometry y="60" width="190" height="26" as="geometry" />
        </mxCell>
        <mxCell id="o90K8o9Egq8ZHoy3wgxz-34" value="+ close(): void" style="text;strokeColor=none;fillColor=none;align=left;verticalAlign=top;spacingLeft=4;spacingRight=4;overflow=hidden;rotatable=0;points=[[0,0.5],[1,0.5]];portConstraint=eastwest;whiteSpace=wrap;html=1;" parent="o90K8o9Egq8ZHoy3wgxz-12" vertex="1">
          <mxGeometry y="86" width="190" height="26" as="geometry" />
        </mxCell>
        <mxCell id="o90K8o9Egq8ZHoy3wgxz-21" style="edgeStyle=orthogonalEdgeStyle;rounded=0;orthogonalLoop=1;jettySize=auto;html=1;endArrow=block;endFill=0;" parent="1" source="o90K8o9Egq8ZHoy3wgxz-16" target="o90K8o9Egq8ZHoy3wgxz-12" edge="1">
          <mxGeometry relative="1" as="geometry" />
        </mxCell>
        <mxCell id="o90K8o9Egq8ZHoy3wgxz-16" value="BattleWindow" style="swimlane;fontStyle=1;align=center;verticalAlign=top;childLayout=stackLayout;horizontal=1;startSize=26;horizontalStack=0;resizeParent=1;resizeParentMax=0;resizeLast=0;collapsible=1;marginBottom=0;whiteSpace=wrap;html=1;" parent="1" vertex="1">
          <mxGeometry x="-390" y="160" width="230" height="86" as="geometry" />
        </mxCell>
        <mxCell id="o90K8o9Egq8ZHoy3wgxz-17" value="- currentEnemy: Enemy*" style="text;strokeColor=none;fillColor=none;align=left;verticalAlign=top;spacingLeft=4;spacingRight=4;overflow=hidden;rotatable=0;points=[[0,0.5],[1,0.5]];portConstraint=eastwest;whiteSpace=wrap;html=1;" parent="o90K8o9Egq8ZHoy3wgxz-16" vertex="1">
          <mxGeometry y="26" width="230" height="26" as="geometry" />
        </mxCell>
        <mxCell id="o90K8o9Egq8ZHoy3wgxz-18" value="" style="line;strokeWidth=1;fillColor=none;align=left;verticalAlign=middle;spacingTop=-1;spacingLeft=3;spacingRight=3;rotatable=0;labelPosition=right;points=[];portConstraint=eastwest;strokeColor=inherit;" parent="o90K8o9Egq8ZHoy3wgxz-16" vertex="1">
          <mxGeometry y="52" width="230" height="8" as="geometry" />
        </mxCell>
        <mxCell id="o90K8o9Egq8ZHoy3wgxz-19" value="+ BattleWindow(currentEnemy: Enemy*)" style="text;strokeColor=none;fillColor=none;align=left;verticalAlign=top;spacingLeft=4;spacingRight=4;overflow=hidden;rotatable=0;points=[[0,0.5],[1,0.5]];portConstraint=eastwest;whiteSpace=wrap;html=1;" parent="o90K8o9Egq8ZHoy3wgxz-16" vertex="1">
          <mxGeometry y="60" width="230" height="26" as="geometry" />
        </mxCell>
      </root>
    </mxGraphModel>
  </diagram>
</mxfile>
